<svg xmlns="http://www.w3.org/2000/svg" xmlns:xlink="http://www.w3.org/1999/xlink" viewBox="0 0 464 302" enable-background="new 0 0 464 302">
  <style type="text/css">
  /* <![CDATA[ */
    /* Palette */
    :root {
      --sky-blue: #8BE0FC;
      --primary-accent-red: #FF6B6B;
      --secondary-accent-yellow: #FFD166;
      --neutral-light: #F7FAFC;
      --neutral-light-variant: #E2E8F0;
      --neutral-medium: #A0AEC0;
      --neutral-dark-structure: #4A5568;
      --outline-and-deep-shadow: #2D3748;
      --grass-outer-area: #4CAF50;
      --grass-field: #59C88B;
      --grass-field-lines: #FFFFFF;
      --track-color: #F2785C; /* Using track color for the red area */
      --shadow-fill-color: #2D3748;
      --tree-main: #48BB78;
      --tree-shadow: #38A169;
      --white-pure: #FFFFFF;
    }

    /* General stroke */
    path, polygon, rect, circle, ellipse, line {
      stroke: var(--outline-and-deep-shadow);
      stroke-width: 0.6px;
      stroke-linejoin: round;
      stroke-linecap: round;
      vector-effect: non-scaling-stroke;
    }
     .no-stroke { stroke: none;}
     .sky-background { fill: var(--sky-blue); stroke: none; }

    /* Class mappings */
    .st0{fill-rule:evenodd;clip-rule:evenodd;fill: var(--grass-outer-area);}
    .st1{fill-rule:evenodd;clip-rule:evenodd;fill: #BCC1C6;}
    .st2{fill-rule:evenodd;clip-rule:evenodd;fill: var(--shadow-fill-color); fill-opacity: 0.2;}
    .st3{fill-rule:evenodd;clip-rule:evenodd;fill: var(--neutral-medium);}
    .st4{fill-rule:evenodd;clip-rule:evenodd;fill: var(--neutral-dark-structure);}
    .st5{fill-rule:evenodd;clip-rule:evenodd;fill: var(--neutral-light);}
    .st6{fill-rule:evenodd;clip-rule:evenodd;fill: var(--neutral-dark-structure);}
    .st7{fill-rule:evenodd;clip-rule:evenodd;fill: var(--neutral-medium);}
    .st8{fill-rule:evenodd;clip-rule:evenodd;fill: var(--neutral-light-variant); fill-opacity: 0.8;}
    .st9{fill-rule:evenodd;clip-rule:evenodd;fill: var(--neutral-light-variant); fill-opacity: 0.6;}
    .st10{fill-rule:evenodd;clip-rule:evenodd;fill: var(--neutral-medium);}
    .st11{fill-rule:evenodd;clip-rule:evenodd;fill: var(--primary-accent-red);}
    .st12{fill-rule:evenodd;clip-rule:evenodd;fill: var(--secondary-accent-yellow);}
    .st13{fill-rule:evenodd;clip-rule:evenodd;fill: var(--primary-accent-red); fill-opacity: 0.85;}
    .st14{fill-rule:evenodd;clip-rule:evenodd;fill: var(--secondary-accent-yellow); fill-opacity: 0.85;}
    .st15{fill-rule:evenodd;clip-rule:evenodd;fill: var(--primary-accent-red); fill-opacity: 0.7;}
    .st16{fill-rule:evenodd;clip-rule:evenodd;fill: var(--neutral-dark-structure);}
    .st17{fill-rule:evenodd;clip-rule:evenodd;fill: var(--track-color);} /* Track/Red area */
    .st18{fill-rule:evenodd;clip-rule:evenodd;fill: var(--grass-field);}
    .st19{fill-rule:evenodd;clip-rule:evenodd;fill: var(--grass-field-lines); fill-opacity:0.6;}
    .st20{fill-rule:evenodd;clip-rule:evenodd;fill: var(--grass-field-lines); fill-opacity:0.3;}
    .st21{fill-rule:evenodd;clip-rule:evenodd;fill: var(--neutral-light-variant);}
    .st22{fill-rule:evenodd;clip-rule:evenodd;fill: var(--neutral-medium);}
    .st23{fill-rule:evenodd;clip-rule:evenodd;fill: var(--neutral-dark-structure);}
    .st24{fill-rule:evenodd;clip-rule:evenodd;fill: var(--neutral-medium); fill-opacity:0.7;}
    .st25{fill-rule:evenodd;clip-rule:evenodd;fill: var(--neutral-light); fill-opacity:0.6;}
    .st26{fill-rule:evenodd;clip-rule:evenodd;fill: var(--white-pure);}
    .st27{fill-rule:evenodd;clip-rule:evenodd;fill: var(--outline-and-deep-shadow); fill-opacity: 0.7;}
    .st28{fill-rule:evenodd;clip-rule:evenodd;fill: var(--neutral-light);}
    .st29{fill-rule:evenodd;clip-rule:evenodd;fill: var(--white-pure); fill-opacity:0.9;}
    .st30{fill-rule:evenodd;clip-rule:evenodd;fill: var(--neutral-medium);}
    .st31{fill-rule:evenodd;clip-rule:evenodd;fill: var(--neutral-dark-structure);}
    .st32{fill-rule:evenodd;clip-rule:evenodd;fill: var(--primary-accent-red);}
    .st33{fill-rule:evenodd;clip-rule:evenodd;fill: var(--primary-accent-red);}
    .st34{fill-rule:evenodd;clip-rule:evenodd;fill: var(--primary-accent-red);}
    .st35{fill-rule:evenodd;clip-rule:evenodd;fill: var(--tree-shadow);}
    .st36{fill-rule:evenodd;clip-rule:evenodd;fill: var(--tree-main);}
  /* ]]> */
  </style>

  <!-- Sky Background Rectangle -->
  <rect class="sky-background" x="-10" y="-10" width="484" height="322"/>

  <!-- Expanded Ground Path -->
  <path d="M209.87 -100 L 900 176 L 232 400 L -200 176 Z" class="st0"/>

  <!-- Stadium elements group (Scaled and Translated) -->
  <g transform="translate(46.4, 30.2) scale(0.8)">
    <path d="M209.4 272L14.67 159.48 210.52 46.15 405.28 158.7z" class="st1"/>
    <path d="M405.28 158.9v18.47L209.3 290.47V272z" class="st2"/>
    <path d="M209.4 290.47L14.78 177.93v-18.46L209.4 271.9zM212.64 251.1c-.74 1.2-2 1.78-3.78 1.78-2.08 0-4.34-.26-6.78-.78v-6c1.48-2.3 3.82-3.3 7-3 3.27.15 4.9 1.4 4.9 3.78 0 1.85-.45 3.26-1.34 4.22zM182.5 234.98c1.4-.96 3-.96 4.78 0 0 .67.37 1.52 1.1 2.56-.06 1.04-.2 1.67-.44 1.9-.37.5-1.2.77-2.45.77l-4-.44h-.23c-.22 0-.33-.6-.33-1.78 0-1.2.52-2.2 1.56-3zM210.97 230.53l-.33 1.33c-.15.22-.1.48.1.78 0 .22-.62.33-1.88.33-2.37 0-4.08-.56-5.12-1.67l-.33-1.33.34-1.78 6.67-.23.57 2.56zM237.33 82.5l-2.34.34c-4.76-.22-7.76-.52-9.02-.9-.22.23-.33-.66-.33-2.66 0-2.74 2.04-4.23 6.12-4.45 4.08-.22 6.12 1.22 6.12 4.34-.02 1.86-.2 2.97-.57 3.34zM214.53 65.28l-.56 2.56c-1.33.37-3.1.56-5.34.56l-.45-.56c-.3-.52-.45-1.33-.45-2.45 0-1.42.6-2.16 1.78-2.23 1.2-.15 2.64-.18 4.35-.1l.68 2.2zM196.06 78.06v-1.33c2.22-.52 4.3-.26 6.23.78l-.23 1.46-2.9.67c-1.77-.45-2.8-.97-3.1-1.57zM257.35 89.74l-2.1 2.45c-1.05.8-2.12 1.2-3.23 1.2-1.34 0-2.1-.06-2.34-.2l-.22-.34c-.37-.52-.56-2.26-.56-5.23.6 0 1.22-.07 1.9-.22 1.7-.2 3.7-.32 6-.32l.55 2.66z" class="st3"/>
    <path d="M209.58 47.57L404.95 159.5 209.58 271.4 14.22 159.5z" class="st4"/>
    <path d="M209.68 51.03l186.22 106.9-186.22 106.9-186.22-106.9z" class="st5"/>
    <path d="M209.64 54.5l180.43 103.4-180.43 103.38L29.2 157.9z" class="st4"/>
    <path d="M303.7 97.47c21.87 12.55 34.6 26.68 38.15 42.38 3.57 15.73-3.07 28.42-19.9 38.08l-66.5 38.18c-16.84 9.67-38.95 13.47-66.33 11.42-27.37-2.03-52-9.33-73.87-21.88-21.87-12.55-34.6-26.7-38.16-42.42-3.57-15.7 3.06-28.38 19.9-38.05L163.5 87c16.84-9.66 38.95-13.48 66.32-11.44 27.38 2.05 52 9.36 73.88 21.9z" class="st6"/>
    <path d="M233.35 243.87l-5 2.88-11.1-6.4 5-2.9zM226.35 248.37l-5 2.88-11.1-6.4 5-2.9zM219 253.02l-5 2.88-11.1-6.4 5-2.9zM266.05 225.72l-5 2.88-11.1-6.4 5-2.9zM258.85 230.27l-5 2.88-11.1-6.4 5-2.9zM251.65 234.82l-5 2.88-11.1-6.4 5-2.9zM297.1 207.47l-5 2.88-11.1-6.4 5-2.9zM289.75 212.07l-5 2.88-11.1-6.4 5-2.9zM282.5 216.62l-5 2.88-11.1-6.4 5-2.9z" class="st7"/>
    <path d="M278.9 192.55l4-2.35 2 1.3-4.05 2.4-1.95-1.35zm6.1-3.5l4.05-2.3L291 188l-4 2.35-2-1.3zm6.1-3.5l4.05-2.35 1.95 1.3-4 2.35-2-1.3zM307.4 176.2l1.95 1.3-4.05 2.35-1.95-1.3 4.05-2.35zm-10.2 5.85l4.1-2.35 1.95 1.3-4.05 2.3-2-1.25zm-6.1 3.5l4.05-2.35 1.95 1.3-4 2.35-2-1.3zM319.65 169.15l1.9 1.3-4 2.35-2-1.3 4.1-2.35zm-4.2 4.8l-4.05 2.35-1.95-1.3 4.05-2.35 1.95 1.3zm-8.1 2.2l2 1.3-4.05 2.4-1.95-1.35 4-2.35zM321.55 170.45l-4 2.35-2-1.3 4.05-2.35 1.95 1.3zm6.1-3.5l-4 2.35-2-1.3 4.1-2.35 1.9 1.3zm6.15-3.5l-4.05 2.3-2-1.25 4.1-2.35 1.95 1.3zM344.1 155.15l1.9 1.3-4.05 2.35-1.95-1.3 4.1-2.35zm-6.1 3.5l1.9 1.3-4.05 2.3-1.95-1.25 4.1-2.35zm-8.25 7.15l-2-1.3 4.05-2.35 2 1.3-4.05 2.35zM350.2 151.65l1.95 1.3-4.05 2.3-2-1.3 4.1-2.3zm4 .1l-2-1.25 4.1-2.35 1.95 1.25-4.05 2.35zm-12.25 7.05l-1.95-1.3 4-2.35 2 1.3-4.05 2.35z" class="st8"/>
    <path d="M339 165.6l-2.26-1.3 8.7-4.48 2.27 1.3-8.7 4.5zM334.5 162.9l-2.26-1.3 8.7-4.48 2.27 1.3-8.7 4.5zM329.8 160.4l-2.26-1.3 8.7-4.48 2.27 1.3-8.7 4.5z" class="st5 no-stroke"/>
    <path d="M318.85 194.37l-5 2.88-11.1-6.4 5-2.9zM311.85 198.87l-5 2.88-11.1-6.4 5-2.9zM304.5 203.52l-5 2.88-11.1-6.4 5-2.9zM351.55 176.22l-5 2.88-11.1-6.4 5-2.9zM344.35 180.77l-5 2.88-11.1-6.4 5-2.9zM337.15 185.32l-5 2.88-11.1-6.4 5-2.9zM382.6 157.97l-5 2.88-11.1-6.4 5-2.9zM375.25 162.57l-5 2.88-11.1-6.4 5-2.9zM368 167.12l-5 2.88-11.1-6.4 5-2.9z" class="st7"/>
    <path d="M201.1 238.05l4.05-2.35 1.95 1.3-4 2.35-2-1.3zm-.1 2.45l-4 2.35-2-1.3 4.05-2.3 1.95 1.25zm-8.1 2.2l2 1.3-4.05 2.4-1.95-1.35 4-2.35zM215.3 232.35l-1.95-1.3 4.05-2.35 1.95 1.3-4.05 2.35zm-8.1 2.2l4.1-2.35 1.95 1.3-4.05 2.3-2-1.25zm-2.05 1.15l1.95 1.3-4 2.35-2-1.3 4.05-2.35zM231.55 222.95l-4 2.35-2-1.3 4.1-2.35 1.9 1.3zm-6.1 3.5l-4.05 2.35-1.95-1.3 4.05-2.35 1.95 1.3zm-10.15 5.9l-1.95-1.35 4-2.35 2 1.3-4.05 2.4zM243.8 215.95l-4.05 2.3-2-1.25 4.1-2.35 1.95 1.3zm-12.15 4.55l4.1-2.35 1.9 1.3-4 2.35-2-1.3zm-.1 2.45l-4 2.35-2-1.3 4.05-2.35 1.95 1.3zM249.9 212.45l-4.05 2.3-1.95-1.25 4.1-2.35 1.9 1.3zm.1-2.45l4.1-2.35 1.9 1.3-4.05 2.35L250 210zm-12.25 7l4.05-2.35 2 1.3-4.05 2.35-2-1.3zM268.25 201.9l-4.05 2.35-2-1.25 4.1-2.35 1.95 1.25zm-8.05 2.25l1.95 1.3-4.05 2.3-2-1.3 4.1-2.3zm-8.25 7.15L250 210l4-2.35 2 1.3-4.05 2.35z" class="st8"/>
    <path d="M276 203.1l-2.26-1.3 8.7-4.48 2.27 1.3-8.7 4.5zM271.5 200.4l-2.26-1.3 8.7-4.48 2.27 1.3-8.7 4.5zM266.8 197.9l-2.26-1.3 8.7-4.48 2.27 1.3-8.7 4.5zM224.25 232.36l-2.26-1.3 8.7-4.5 2.26 1.32-8.7 4.48zM219.75 229.66l-2.26-1.3 8.7-4.5 2.26 1.32-8.7 4.48zM215.05 227.16l-2.26-1.3 8.7-4.5 2.26 1.32-8.7 4.48z" class="st5 no-stroke"/>
    <path d="M348.55 140.82l-5 2.88-11.1-6.4 5-2.9zM341.35 145.37l-5 2.88-11.1-6.4 5-2.9zM334.15 149.92l-5 2.88-11.1-6.4 5-2.9zM334.75 133.62l-5 2.88-11.1-6.4 5-2.9zM327.55 138.17l-5 2.88-11.1-6.4 5-2.9zM320.35 142.72l-5 2.88-11.1-6.4 5-2.9zM195.55 227.22l-5 2.88-11.1-6.4 5-2.9zM188.35 231.77l-5 2.88-11.1-6.4 5-2.9zM181.15 236.32l-5 2.88-11.1-6.4 5-2.9zM181.75 220.02l-5 2.88-11.1-6.4 5-2.9zM174.55 224.57l-5 2.88-11.1-6.4 5-2.9zM167.35 229.12l-5 2.88-11.1-6.4 5-2.9zM59.85 168.47l5 2.88 11.1-6.4-5-2.9zM66.85 172.97l5 2.88 11.1-6.4-5-2.9zM74.2 177.62l5 2.88 11.1-6.4-5-2.9zM74.75 152.87l-5 2.88-11.1-6.4 5-2.9zM67.75 157.37l-5 2.88-11.1-6.4 5-2.9zM60.4 162.02l-5 2.88-11.1-6.4 5-2.9z" class="st7"/>
    <path d="M138.45 89.4c.7-.47 1.42-.9 2.15-1.3 22.8-14.7 49.18-23.57 79.15-26.6 15.97-1.57 30.3-1.2 43 1.1 1.83.77 3.58 1.63 5.25 2.6-13.97-2.53-29.85-2.93-47.65-1.2-31.57 3.1-59.47 12.2-83.7 27.3.63-.7 1.23-1.33 1.8-1.9z" class="st9"/>
    <path d="M136.65 91.3c24.23-15.1 52.13-24.2 83.7-27.3 17.8-1.73 33.68-1.33 47.65 1.2.33.33.7.62 1.1.85 5.57 3.4 9.62 7.37 12.15 11.9-16.77-5.7-36.95-7.45-60.55-5.25-31.47 2.97-59.17 12.07-83.1 27.3-3.9 2.4-7.47 4.87-10.7 7.4 1.8-5.63 5.05-11 9.75-16.1zm126.1-28.7c-12.7-2.3-27.03-2.67-43-1.1-29.97 3.03-56.35 11.9-79.15 26.6-.73.4-1.45.83-2.15 1.3 4.3-4.3 9.5-8.43 15.6-12.4 17.5-11.2 37.45-17.95 59.85-20.25 19.7-2 35.98-.05 48.85 5.85z" class="st10"/>
    <path d="M325.18 128.5l-114.75 66.2c-5.3 3.05-11.8 4.52-19.56 4.4-7.72-.14-14.4-1.82-20.05-5.05l-78.46-44.9c-5.65-3.23-8.6-7.07-8.87-11.5-.25-4.45 2.28-8.2 7.57-11.25l114.75-66.2c5.3-3.05 11.8-4.52 19.52-4.4 7.75.14 14.44 1.82 20.1 5.05l78.45 44.9c5.64 3.23 8.58 7.07 8.82 11.5.27 4.45-2.24 8.2-7.54 11.25z" class="st11"/>
    <path d="M323.74 129.4l-113.6 65.54c-5.23 3.02-11.68 4.47-19.35 4.34-7.65-.13-14.26-1.8-19.85-5L93.3 149.84c-5.6-3.2-8.53-7-8.8-11.4-.22-4.4 2.28-8.1 7.52-11.13l113.6-65.53c5.23-3.02 11.67-4.47 19.3-4.34 7.68.13 14.3 1.8 19.9 5l77.66 44.45c5.6 3.2 8.5 7 8.74 11.4.24 4.4-2.24 8.1-7.48 11.13z" class="st12"/>
    <path d="M316.6 132.9l-105.67 60.97c-4.87 2.8-10.88 4.16-18 4.04-7.12-.1-13.27-1.65-18.47-4.63L102.2 151.9c-5.2-2.97-7.94-6.5-8.18-10.6-.22-4.08 2.1-7.53 6.98-10.34L206.66 70c4.87-2.8 10.86-4.16 17.97-4.04 7.13.12 13.3 1.67 18.5 4.64l72.27 41.36c5.2 2.98 7.9 6.5 8.13 10.6.24 4.1-2.07 7.54-6.94 10.35z" class="st13"/>
    <path d="M315.07 133.68l-104.56 60.3c-4.8 2.78-10.75 4.1-17.8 4-7.04-.12-13.13-1.65-18.28-4.6l-71.5-40.9c-5.15-2.96-7.84-6.45-8.08-10.5-.22-4.05 2.1-7.46 6.9-10.24l104.57-60.3c4.83-2.78 10.76-4.1 17.8-4 7.05.12 13.15 1.65 18.3 4.6l71.5 40.9c5.15 2.96 7.83 6.45 8.05 10.5.24 4.05-2.05 7.46-6.88 10.24z" class="st14"/>
    <path d="M306.83 137.82l-96.13 55.45c-4.43 2.56-9.9 3.78-16.4 3.68-6.46-.1-12.06-1.5-16.8-4.22l-65.75-37.62c-4.73-2.7-7.2-5.9-7.44-9.63-.2-3.72 1.93-6.86 6.36-9.42L206.8 80.6c4.42-2.56 9.87-3.78 16.34-3.68 6.5.1 12.1 1.5 16.84 4.22l65.76 37.62c4.73 2.7 7.2 5.92 7.4 9.64.23 3.72-1.88 6.86-6.3 9.42z" class="st13"/>
    <path d="M305.98 138.42l-95.32 55c-4.4 2.54-9.8 3.75-16.25 3.65-6.4-.1-11.96-1.5-16.65-4.2l-65.2-37.3c-4.7-2.7-7.16-5.9-7.4-9.58-.2-3.7 1.9-6.8 6.3-9.35l95.33-55c4.4-2.54 9.8-3.75 16.2-3.65 6.45.1 12 1.5 16.7 4.2l65.22 37.3c4.7 2.7 7.14 5.9 7.34 9.58.22 3.7-1.87 6.8-6.26 9.34z" class="st15"/>
    <path d="M298.18 142.06l-87.86 50.68c-4.05 2.34-9.04 3.46-14.98 3.36-5.9-.1-11.03-1.38-15.35-3.86l-60.1-34.4c-4.3-2.47-6.58-5.4-6.78-8.8-.18-3.4 1.75-6.28 5.8-8.62l87.87-50.68c4.04-2.34 9.02-3.46 14.93-3.36 5.93.1 11.06 1.38 15.38 3.86l60.1 34.4c4.32 2.47 6.57 5.4 6.75 8.8.2 3.4-1.72 6.28-5.77 8.62z" class="st16"/>
    <path d="M297.34 143.13l-87.17 50.28c-4.02 2.33-8.97 3.44-14.86 3.34-5.85-.1-10.93-1.37-15.22-3.83l-59.6-34.1c-4.3-2.46-6.55-5.37-6.75-8.75-.18-3.37 1.74-6.22 5.76-8.54l87.16-50.27c4.02-2.32 8.96-3.43 14.82-3.33 5.88.1 10.97 1.37 15.26 3.83l59.6 34.1c4.3 2.47 6.54 5.38 6.72 8.76.2 3.36-1.7 6.2-5.72 8.53z" class="st17 no-stroke"/>
    <path d="M226.35 105.46l-7.65 4.33 40.25 23.2 7.5-4.33 6.5-3.75-10.25-6.2-5.05 2.88-19.62-11.1 5.05-2.9-10.24-5.9-6.5 3.76zm-5.63-10.68l-.72.43c.2.1.48.16.87.16.3 0 .53 0 .72 0l-.88-.58zm9.24 23.5c.48 1.93 2.02 3.66 4.62 5.2 2.7 1.55 5.77 2.5 9.23 2.9.2 0 .4 0 .6 0 .18 0 .42 0 .7 0 .3 0 .64 0 1.02 0l-16.45-9.53c0 .2 0 .43 0 .72 0 .1 0 .2 0 .3 0 .1.1.23.3.42zm-15.73-19.6l-9.23 5.2-9.1 5.33-9.22 5.2-9.38 5.48 20.34 11.68c2.7-1.54 6.06-2.2 10.1-2.02 2.5 0 4.9.4 7.2 1.15.6.18 1.16.47 1.74.86.77.3 1.5.58 2.16.86.77.48 1.4.9 1.88 1.3.48.38.9.77 1.3 1.15 1.25 1.25 1.97 2.6 2.16 4.04.3 2.32-.82 4.34-3.32 6.07l20.2 11.54 9.37-5.32 9.1-5.2 9.37-5.33 9.1-5.34 5.18-3.02c-.3-.2-.53-.48-.72-.86 0-.4.15-.63.43-.72l-9.24-5.48-6.5 3.9-8.07 4.6-11.84-6.77c-.77 0-1.44 0-2.02 0h-.14c-.3 0-.48 0-.58 0-3.94-.3-7.45-1.34-10.53-3.17-3-1.63-4.72-3.6-5.2-5.9 0-.1 0-.2 0-.3v-.3c-.1-.28-.1-.62 0-1l-11.54-6.5 8.37-4.6 6.5-3.9-9.82-5.48c-.37.1-.86.14-1.43.14-.58 0-1.06-.14-1.44-.43l-5.2 3.18zm29.57 9.37l-4.33 2.45 18.03 10.38 4.33-2.45-18.03-10.38zm-1.44 10.4c.38 0 .67.1.87.28.3.2.48.4.58.58 0 .1-.13.25-.42.44-.2.1-.48.15-.87.15-.37 0-.66-.06-.86-.16-.3-.2-.48-.38-.58-.57 0-.3.14-.48.43-.58.2-.12.48-.16.86-.16zM213.5 98.1l7.37-4.18 65.2 37.64-7.36 4.18-9.08 5.2-9.23 5.47-9.24 5.2-9.52 5.62-9.23 5.2-9.37 5.33-9.52 5.48-9.22 5.34-7.65 4.33-65.34-37.5 7.64-4.33 9.38-5.33 9.52-5.63 9.23-5.18 9.1-5.48 9.8-5.34 8.94-5.2 9.4-5.47 9.2-5.33zm-3.74 39.8c.38.2.58.44.58.73v.14l9.67 5.63c2.4-1.44 3.47-3.27 3.18-5.48-.2-1.73-1.25-3.32-3.17-4.76-.47-.38-1.1-.77-1.87-1.15-.58-.47-1.15-.8-1.73-1h-.14c-2.5-1.15-5.3-1.78-8.37-1.87-3.86-.2-7.03.43-9.53 1.87l10.1 5.77c.1 0 .24 0 .43 0 .28 0 .57.04.86.14zm-12.4 4.34c.57.57 1.3 1.1 2.15 1.6.78.37 1.6.76 2.46 1.14.48.2 1 .43 1.6.72 1.9.48 4.03.77 6.34.87 3.85.2 7.02-.43 9.52-1.88l-9.66-5.5c-.3 0-.53 0-.72 0-.38 0-.67-.1-.87-.28-.3-.1-.43-.24-.43-.43 0-.2 0-.35 0-.44l-10.1-5.77c-2.4 1.43-3.4 3.26-3.03 5.47.1 1.25.68 2.45 1.74 3.6.3.3.63.58 1 .87zm-2.46-1.3c-.77-1.06-1.25-2.12-1.44-3.17-.2-2.4.96-4.33 3.46-5.77l-20.2-11.83-8.94 5.05-9.23 5.48-9.52 5.34-9.23 5.48-5.63 3.17c.3.28.48.62.58 1 0 .2-.1.43-.3.72l9.53 5.48 7.07-3.9 7.8-4.46 11.38 6.5c.58 0 1.25 0 2.02 0 .2 0 .48 0 .87 0 .1 0 .3.04.58.14 3.56.2 6.78 1.15 9.67 2.88 2.88 1.54 4.66 3.4 5.34 5.62h-.28c.2.1.3.2.3.3 0 .1 0 .23 0 .42.1.48.14.87.14 1.16l11.68 6.92-7.93 4.47-6.77 3.9 9.1 5.47c.37-.3.86-.43 1.43-.43.67.18 1.15.33 1.44.42l5.63-3.03 9.38-5.5 9.53-5.62 9.23-5.2 8.94-5.18-20.34-11.54c-2.8 1.44-6.2 2.07-10.24 1.87-1.92 0-3.7-.24-5.34-.72-.48-.18-.9-.33-1.3-.42-1.54-.48-2.98-1.06-4.33-1.73-1.44-.86-2.6-1.73-3.46-2.6-.2-.18-.4-.43-.6-.7zm-7.5 17.3c-.58-1.83-2.16-3.46-4.76-4.9-2.4-1.44-5.2-2.3-8.37-2.6-.3 0-.48 0-.58 0-.5-.2-.97-.3-1.45-.3-.38 0-.67 0-.87 0l16.3 9.67c0-.28 0-.52 0-.7-.1-.3-.14-.54-.14-.73 0-.2-.04-.33-.14-.43zm-53.66-12.55c0-.3-.1-.5-.3-.58l-.7.3.7.57c.2-.1.3-.2.3-.3zm58.13 25.8l7.36-4.32-40.4-22.93-7.06 4.04-6.92 4.17 10.1 5.77 5.2-2.88 19.6 11.1-5.18 3.18 10.53 5.9 6.77-4.03zM174 157.96c0-.3.13-.48.42-.57.2-.3.48-.34.86-.15.3 0 .58.05.87.15.3.1.43.3.43.57 0 .2-.15.34-.43.43-.2.2-.48.3-.87.3-.2 0-.48-.15-.86-.44-.3-.1-.43-.2-.43-.3zm4.3 8.5l-18.17-10.37-4.33 2.74 18.03 10.24 4.48-2.6zm19.05 15.45c-.3-.2-.62-.3-1-.3-.2 0-.44 0-.73 0l1 .6.73-.3zm86.4-49.9l.73-.44-.72-.58c-.1.2-.14.4-.14.58 0 .1.05.24.14.43z" class="st18 no-stroke"/>
    <path d="M220.72 94.78l.87.58c-.2 0-.44 0-.73 0-.38 0-.67-.05-.87-.15l.72-.42zm5.63 10.68l6.5-3.75 10.23 5.93-5.05 2.88 19.62 11.12 5.05-2.88 10.24 6.2-6.5 3.75-40.1-23.24zm17.45 2.6l18.03 10.38-4.33 2.45-18.03-10.4 4.33-2.45zm-29.57-9.38l5.2-3.17c.37.3.86.44 1.43.44.58 0 1.06-.05 1.44-.14l9.8 5.48-6.48 3.9-11.4-6.5zm14.57 18.9c0 .1 0 .18 0 .28.48 2.3 2.2 4.28 5.2 5.9 3.07 1.84 6.58 2.9 10.52 3.18.1 0 .3 0 .58 0l23.8 13.7-9.38 5.34-63.62-36.78 9.1-5.34 23.8 13.7zm38.37 11.53l6.5-3.88 9.22 5.48c-.3.1-.44.34-.44.72.2.38.43.67.72.86l-5.2 3.03-10.8-6.2zm-16.73 22.08l-9.38 5.33-20.2-11.53c2.5-1.73 3.62-3.75 3.33-6.06-.2-1.43-.92-2.78-2.17-4.03l28.4 16.3zm30.58-14.14l-2.3-1.3 7.35-4.18-65.2-37.64-7.36 4.18-2.3-1.3 9.1-5.2 69.95 40.1-9.23 5.34zm-66.07-6.34c-2.3-.77-4.7-1.15-7.2-1.15-4.05-.2-7.4.48-10.1 2.02L177.3 119.9l9.38-5.5 28.27 16.3zm15-12.4l13.86 8.07c-3.45-.4-6.53-1.35-9.22-2.88-2.6-1.56-4.14-3.3-4.62-5.2zm-35.05-9.38l-2.3-1.44 9.37-5.2 2.3 1.16-9.37 5.48zm-8.94 5.2l-9.8 5.33-2.17-1.16 9.65-5.63 2.3 1.44zm-18.9 10.8l-9.23 5.2-2.3-1.3 9.08-5.33 2.46 1.43zm-18.75 10.83l-9.37 5.33-2.3-1.44 9.37-5.33 2.3 1.45zm56.27 10.67L231.54 162l-9.23 5.2-63.75-36.5 9.23-5.48 27.12 15.72c.2.3.38.53.58.72.87.86 2.02 1.73 3.46 2.6 1.35.66 2.8 1.24 4.33 1.72.38.1.82.24 1.3.44zm39.38 11.97l-2.3-1.17 9.5-5.62 2.32 1.45-9.52 5.34zm-11.54 4.03l2.32 1.44-9.38 5.2-2.3-1.3 9.37-5.34zm-28.12 16.15l9.23-5.34 2.32 1.44-9.1 5.2-2.44-1.3zm58.42-30.72l-2.3-1.44 9.22-5.48 2.3 1.44-9.22 5.48zm-88.43 2.88l13.13 7.5c.1.1.14.24.14.43 0 .2.05.43.14.72 0 .18 0 .42 0 .7l-16.3-9.65c.2 0 .48 0 .87 0 .48 0 .96.1 1.44.3.1 0 .3 0 .57 0zm17.6 20.77l-40.1-23.2 7.07-4.05 40.4 22.93-7.37 4.33zm-3.17-12.53l24.1 13.85-9.4 5.48-10.8-6.35 7.92-4.47-11.68-6.92c0-.3-.05-.67-.15-1.16 0-.2 0-.34 0-.43zm-39.67-22.94l24.1 14c-.4 0-.68 0-.88 0-.77 0-1.44 0-2.02 0l-11.4-6.5-7.78 4.47-11.25-6.5 9.23-5.47zm60.73 1.88c-.3-.1-.58-.14-.87-.14-.2 0-.35 0-.44 0l-10.1-5.77c2.5-1.45 5.67-2.07 9.52-1.88 3.08.1 5.87.72 8.37 1.87h.14c.57.18 1.14.52 1.72 1 .77.38 1.4.77 1.88 1.15 1.92 1.44 2.98 3.03 3.17 4.76.3 2.22-.77 4.05-3.17 5.5l-9.67-5.64v-.14c0-.28-.18-.52-.57-.7zM174 157.96c0 .1.13.2.42.3.38.28.67.42.86.42.38 0 .67-.1.87-.3.3-.1.43-.23.43-.42 0-.3-.15-.48-.43-.57-.3-.1-.58-.15-.87-.15-.38-.2-.67-.14-.86.15-.3.1-.43.3-.43.57zM283.75 132c-.1-.2-.14-.35-.14-.44 0-.2.05-.4.14-.58l.72.58-.72.43z" class="st19 no-stroke"/>
    <path d="M197.35 142.24l4.62 2.74c-.86-.38-1.68-.77-2.45-1.15-.87-.5-1.6-1.02-2.17-1.6z" class="st20 no-stroke"/>
    <path d="M117.95 145.8c-6.3-5.97-9.45-13.6-9.45-22.9 0-11.37 5.25-22.73 15.75-34.1 10.97-11.77 25.83-21.65 44.6-29.65 5.07-3.03 11.82-5.87 20.25-8.5 8.9-2.7 18.32-4.68 28.25-5.95 11.07-1.33 21.43-1.68 31.1-1.05 11.07.93 20.65 3.07 28.75 6.4 5.87 2.47 11.03 7.4 15.5 14.8 1.9 2.93 3.37 6 4.4 9.2 1.03 3.17 1.55 5.9 1.55 8.2 0 7.7-1.63 15.37-4.9 23-3.97 9.53-9.72 16.57-17.25 21.1-3.6 2.07-8.97 5.65-16.1 10.75-6.13 4.2-11.38 7.45-15.75 9.75-6.43 3.27-13.95 6.08-22.55 8.45-9.93 2.73-22.17 5.08-36.7 7.05h-15.25c-25.03-1.67-42.43-7.18-52.2-16.55zM280.65 80c-2.53-4.53-6.58-8.55-12.15-12.05-.4-.23-.77-.43-1.1-.6-1.67-1.03-3.4-1.98-5.2-2.85-12.9-5.8-29.2-7.72-48.9-5.75-22.5 2.23-42.45 8.95-59.85 20.15-6.2 3.97-11.4 8.1-15.6 12.4-.73.63-1.37 1.27-1.9 1.9-4.7 5.17-7.92 10.53-9.65 16.1-.57 1.53-.97 3.08-1.2 4.65-2.3 12.23 2.75 22.05 15.15 29.45 12.4 7.47 28.72 10.57 48.95 9.3 21-1.37 40.37-6.85 58.1-16.45 18.57-10.1 30.08-21.75 34.55-34.95 2.63-8 2.23-15.1-1.2-21.3z" class="st5"/>
    <path d="M117.95 145.8c9.77 9.37 27.17 14.88 52.2 16.55h15.25c14.53-1.97 26.77-4.32 36.7-7.05 8.6-2.37 16.12-5.18 22.55-8.45 4.37-2.3 9.62-5.55 15.75-9.75 7.13-5.1 12.5-8.68 16.1-10.75 7.53-4.53 13.28-11.57 17.25-21.1 3.27-7.63 4.9-15.3 4.9-23 0-2.3-.52-5.03-1.55-8.2-1.03-3.2-2.5-6.27-4.4-9.2-4.47-7.4-9.63-12.33-15.5-14.8-8.1-3.33-17.68-5.47-28.75-6.4-9.67-.63-20.03-.28-31.1 1.05-9.93 1.27-19.35 3.25-28.25 5.95-8.43 2.63-15.18 5.47-20.25 8.5-18.77 8-33.63 17.88-44.6 29.65-10.5 11.37-15.75 22.73-15.75 34.1 0 9.3 3.15 16.93 9.45 22.9zM337.3 87.6c-.67 3.1-1.58 6.25-2.75 9.45-8.37 21.6-28.08 40.43-59.15 56.5-28.83 14.77-59.75 23.03-92.75 24.8-31.47 1.57-56.93-3.37-76.4-14.8-12.57-7.47-20.55-16.45-23.95-26.95-.8-2.37-1.35-4.87-1.65-7.5-.17-2.4-.22-4.78-.15-7.15.1-1.43.27-2.9.5-4.4 2.77-20.2 17.1-39.08 43-56.65 28-18.83 60.55-30.43 97.65-34.8 9.07-1.1 17.77-1.62 26.1-1.55 27.03-.07 49.17 5.42 66.4 16.45 15.97 10.27 24.03 22.78 24.2 37.55-.17 2.93-.52 5.95-1.05 9.05z" class="st21"/>
    <path d="M337.15 97.65c-.63 3.8-1.75 7.8-3.35 12-8.1 21.17-27.57 39.53-58.4 55.1-28.53 14.47-59.13 22.45-91.8 23.95-31.3 1.5-56.52-3.47-75.65-14.9-12.67-7.3-20.62-16.2-23.85-26.7 1.27 13.5 9.6 24.82 25 33.95 14.23 8.37 31.72 13.18 52.45 14.45l18.15.6 2.35-.15c.73-.07 1.5-.1 2.3-.1.4 0 .8 0 1.2 0 .77 0 1.55-.03 2.35-.1l22.65-2.4L225 190.5c17.47-3.9 34.35-9.87 50.65-17.9 30.5-15.27 49.85-33.35 58.05-54.25.47-1.57.95-3.07 1.45-4.5-.5 3.97-1.53 8.05-3.1 12.25-8.03 20.5-27.18 38.23-57.45 53.2-28.3 13.97-58.55 21.63-90.75 23-30.83 1.2-55.75-3.77-74.75-14.9-12.63-7.47-20.45-16.33-23.45-26.6-1.43-4.37-1.95-8.93-1.55-13.7-.1-.07-.15-.18-.15-.35-1.03-3.2-1.58-6.58-1.65-10.15 3.4 10.5 11.38 19.48 23.95 26.95 19.47 11.43 44.93 16.37 76.4 14.8 33-1.77 63.92-10.03 92.75-24.8 31.07-16.07 50.78-34.9 59.15-56.5 1.17-3.2 2.08-6.35 2.75-9.45.3 3.2.25 6.55-.15 10.05z" class="st9"/>
    <path d="M84.1 147.1c3.23 10.5 11.18 19.4 23.85 26.7 19.13 11.43 44.35 16.4 75.65 14.9 32.67-1.5 63.27-9.48 91.8-23.95 30.83-15.57 50.3-33.93 58.4-55.1 1.6-4.2 2.72-8.2 3.35-12 .17 2.43.08 5.05-.25 7.85-.23 2.47-.7 5.05-1.4 7.75.07 2.23-.05 4.62-.35 7.15-.5 3.97-1.58 8.13-3.25 12.5-7.93 20.2-26.97 37.73-57.1 52.6-28.03 13.67-58.12 21.08-90.25 22.25-5.7.17-11.25.17-16.65 0-1.6 0-3.12-.03-4.55-.1-21.07-1.43-38.75-6.32-53.05-14.65-14.87-8.73-23.08-19.47-24.65-32.2 3 10.27 10.82 19.13 23.45 26.6 19 11.13 43.92 16.1 74.75 14.9 32.2-1.37 62.45-9.03 90.75-23 30.27-14.97 49.42-32.7 57.45-53.2 1.57-4.2 2.6-8.28 3.1-12.25-.5 1.43-.98 2.93-1.45 4.5-8.2 20.9-27.55 38.98-58.05 54.25-16.3 8.03-33.18 14-50.65 17.9l-14.45 2.85-22.65 2.4c-.8.07-1.58.1-2.35.1-.4 0-.8 0-1.2 0-.8 0-1.57.03-2.3.1l-2.35.15-18.15-.6c-20.73-1.27-38.22-6.08-52.45-14.45-15.4-9.13-23.73-20.45-25-33.95z" class="st22"/>
    <path d="M84.7 105.15c.07.07.18.18.35.35v.1c0 .1.03.27.1.5l.5 1.2v.1c.07.33.1.62.1.85s0 .38 0 .45c0 .1 0 .22 0 .35 0 .17-.12.37-.35.6 0-.53-.08-1-.25-1.4-.7-2.47-1.85-3.75-3.45-3.85v.75c0 .4.35 1.75 1.05 4.05.17.57.37 1.12.6 1.65-.07 0-.22.05-.45.15-.47-1.3-1.03-2.53-1.7-3.7-.93-2.63-1.4-4.18-1.4-4.65 0-.5 0-.98 0-1.45 1.6-.7 3.03.18 4.3 2.65.23.37.43.8.6 1.3zm34.55-39.45c-.23.07-.55.18-.95.35-.23-.33-.87-1.33-1.9-3-.97-1.83-1.45-2.95-1.45-3.35 0-.93.23-1.4.7-1.4.5-.1 1.15.13 1.95.7 1.27 1.2 2.1 2.55 2.5 4.05 0 .23.07.52.2.85h-.2c-.8-1.77-1.72-3.17-2.75-4.2l-.5.25c-.07.1-.1.35-.1.75 0 .23.63 1.5 1.9 3.8.17.4.37.8.6 1.2zm-16.2 7c-.5-.3-1.02-.45-1.55-.45 0 .07 0 .27 0 .6 0 .63.4 2.13 1.2 4.5.3.8.57 1.48.8 2.05-.23.23-.55.38-.95.45-.3-.4-.93-1.63-1.9-3.7-1.03-2.3-1.55-3.85-1.55-4.65v-.45c.17 0 .25-.03.25-.1 1.27-.5 2.5.08 3.7 1.75zm-11.1 16.25c.23.3.4.53.5.7.63 1.03.95 1.98.95 2.85 0 .23-.08.43-.25.6-1.03-3.57-2.3-5.52-3.8-5.85l-.15.85c.17.23.68 1.73 1.55 4.5.17.4.33.8.5 1.2h-.15c-.47 0-1.22-1.18-2.25-3.55l-1.2-3.35c0-.97.32-1.37.95-1.2.5.1 1.13.53 1.9 1.3.57.57 1.05 1.22 1.45 1.95zM82.2 123.6c.07.33.13.7.2 1.1.17.93.28 2.08.35 3.45.1.17.15.4.15.7.07.97.18 2.32.35 4.05 0 .23.28 3.25.85 9.05.47 5.8.7 9.22.7 10.25 0 1.77-.32 2.85-.95 3.25-.57-.97-.97-2.17-1.2-3.6.07-1.17.15-2.83.25-5 .23-2.93.35-6.12.35-9.55 0-2.37-.35-5.22-1.05-8.55-.67-3.5-1-5.48-1-5.95 0-.33 0-.62 0-.85l.25-.35c-.93.07-1.48.5-1.65 1.3 0 .17 0 .65 0 1.45 0 .23.2 1.78.6 4.65.3 1.67.5 3.22.6 4.65-.4-1.83-.92-4.07-1.55-6.7-1.27-5.17-1.9-8.03-1.9-8.6 0-1.57.23-2.35.7-2.35.4 0 .95.52 1.65 1.55.63.87 1.15 1.9 1.55 3.1.5 1.1.75 1.93.75 2.5v.25c0 .07 0 .13 0 .2zm7.95 18.35c.33.73.65 1.42.95 2.05.17.7.42 1.45.75 2.25 0 .1.03.27.1.5.23.63.43 1.3.6 2 .57 2.3.88 4.65.95 7.05-1.43-3.9-2.98-8.32-4.65-13.25h-.6c-.17 0-.25.2-.25.6 0 .57.72 3.23 2.15 8 1.53 5.63 2.3 10.77 2.3 15.4 0 .3-.05 1.72-.15 4.25-.07 2.7-.1 4.73-.1 6.1.93-.4 1.57-1.52 1.9-3.35 0 1.37.03 2.57.1 3.6-.13.47-.53.7-1.2.7-.37 0-.6 0-.7 0 0-.07-.12-.18-.35-.35-.23-7.63-.63-13.87-1.2-18.7-.17-1.83-1-4.98-2.5-9.45-1.33-4.13-2-7.18-2-9.15 0-2 .32-2.92.95-2.75.63.23 1.42 1.3 2.35 3.2.23.5.43.93.6 1.3zm38.3 59.85c0 .1-.05.18-.15.25-.4.23-.75.35-1.05.35-.87 0-1.7-2.5-2.5-7.5-1.27-6.53-2.03-10.15-2.3-10.85-.93-2.77-1.83-5.55-2.7-8.35-1.83-5.4-2.75-8.77-2.75-10.1 0-1.6.23-2.52.7-2.75.57-.23 1.25 0 2.05.7.13.17.37.4.7.7.3.4.58.85.85 1.35.13.23.25.42.35.55.53 1.13.93 2.22 1.2 3.25 0 .17.03.37.1.6.3 1.17.7 2.75 1.2 4.75.8 2.8 1.32 4.52 1.55 5.15l.6 4.05c-1.03-4.07-1.83-7.1-2.4-9.1-1.2-3.63-2.75-6.05-4.65-7.25 1.1 3.27 3.08 10.53 5.95 21.8 1.6 6.2 2.68 10.33 3.25 12.4zm-20.05-32.4c-1.03-3.97-2.22-7.9-3.55-11.8-.27.07-.43.15-.5.25-.07.23-.1.55-.1.95 0 .93.75 4.3 2.25 10.1 1.5 5.97 2.25 9.12 2.25 9.45.33 2.13.65 5.42.95 9.85.17 2 .42 3.8.75 5.4-.97-.87-1.93-3.65-2.9-8.35-.7-6.13-1.13-9.6-1.3-10.4-.23-1.17-1.27-4.73-3.1-10.7-1.67-5.5-2.5-8.52-2.5-9.05 0-1.6.28-2.52.85-2.75.4-.1 1 .33 1.8 1.3.37.57.72 1.12 1.05 1.65h.1l.25.5c.1.07.18.23.25.5.7 1.17 1.25 2.47 1.65 3.9.1.17.15.33.15.5.47 2.37 1.02 5.27 1.65 8.7zM277.65 26.35l-.2-1.3c0-.1 0-.18 0-.25.07-1.9.65-3.57 1.75-5 .5-.57.9-.68 1.2-.35.1.07.18.18.25.35-.17 0-.32 0-.45 0-.57.17-1.08.83-1.55 2-.57.97-.85 1.8-.85 2.5 0 .5 0 .87 0 1.1.17.4.45.67.85.8.23 0 .42-.07.55-.2.1-1.13.38-2.22.85-3.25.47-.93.7-1.72.7-2.35 0-.1 0-.18 0-.25.17.47.25 1.1.25 1.9 0 1.43-.12 2.67-.35 3.7-.4 2-1 3-1.8 3-.13 0-.28-.05-.45-.15-.17-.3-.42-.85-.75-1.65v-.6zm-17.85-1.9c-.33.3-.7.45-1.1.45-.07 0-.18-.03-.35-.1-.53-.17-.85-.53-.95-1.1 0-.7 0-1.08 0-1.15 0-.1 0-.27 0-.5.1.07.27.23.5.5.93-.8 1.8-2.03 2.6-3.7.63-1.2.95-1.97.95-2.3 0-.07-.12-.27-.35-.6-.17-.07-.28-.13-.35-.2.17 0 .37 0 .6 0 .47.23.7 1.07.7 2.5 0 1.33-.23 2.63-.7 3.9-.4 1.13-.92 1.9-1.55 2.3zm34.35 2.5c.37-.97.87-1.85 1.5-2.65.67-1.03 1.23-1.55 1.7-1.55s.7.72.7 2.15c0 .73-.2 1.77-.6 3.1-.4 1.67-.67 2.98-.8 3.95-.27.07-.67.1-1.2.1-.33 0-.65-.03-.95-.1-.5-.17-.82-.37-.95-.6v-.25l-.25-.1-.15-.85c0-.3.05-.58.15-.85 0 .33.08.53.25.6 0 .27.2.47.6.6.07 0 .13-.03.2-.1l.35-.1c.1-1.2.58-2.52 1.45-3.95.87-1.37 1.3-2.17 1.3-2.4 0-.23-.03-.35-.1-.35h-.25c-.63.07-1.43.87-2.4 2.4-.23.4-.42.72-.55.95zm39.65 28.6c-.07.33-.1.62-.1.85 0 .13.08.37.25.7.17.07.32.23.45.5.23-.17.4-.25.5-.25.17-.4.6-1 1.3-1.8.73-.8 1.28-1.32 1.65-1.55-.23-.33-.47-.53-.7-.6.17 0 .37 0 .6 0 .47.17.7.6.7 1.3 0 .57-.32 1.97-.95 4.2-.53 2.13-.85 3.43-.95 3.9 0 .17-.08.3-.25.4-.07.07-.25.1-.55.1-.57 0-1.05-.48-1.45-1.45-.23-.4-.4-.87-.5-1.4-.13-1.13-.28-1.97-.45-2.5l-.15-.35c0-.4.13-.8.4-1.2 0-.33.07-.62.2-.85zM240.35 17.9c-.17.47-.37 1.42-.6 2.85-.3 1.33-.37 2.32-.2 2.95-.27.5-.55.87-.85 1.1-.23 0-.43.03-.6.1 0-.23 0-.38 0-.45 0-.4-.03-.6-.1-.6l-.4.1c-.13.23-.32.63-.55 1.2-.5-.17-.78-.57-.85-1.2v-.1c-.17-.33-.25-.73-.25-1.2 0-.07 0-.15 0-.25.17.23.28.48.35.75.1.13.3.32.6.55.1 0 .27-.03.5-.1.07-.17.13-.25.2-.25.1-1.57.62-2.95 1.55-4.15.4-.57.8-1 1.2-1.3zm0-.75c-.17 0-.25-.03-.25-.1-1.17-.17-2.18.47-3.05 1.9-.4.73-.65 1.42-.75 2.05.17-1.53.8-2.93 1.9-4.2.5-.63.95-.92 1.35-.85.53 0 .8.4.8 1.2zm-18.7 10.05c-.4.23-.83.42-1.3.55-.1.1-.18.15-.25.15h-.5c-.37 0-.68-.05-.95-.15-.47-.13-.78-.45-.95-.95-.13-.7-.2-1.08-.2-1.15v-.15c.13.1.28.18.45.25.4-.47 1.03-1.5 1.9-3.1 1.03-1.73 1.55-2.93 1.55-3.6 0-.3-.03-.53-.1-.7-.17-.07-.28-.1-.35-.1-.57.07-1.13.3-1.7.7.97-1.6 2.17-2.35 3.6-2.25l.25.95c0 .17 0 1.03 0 2.6.07 1.27.07 2.38 0 3.35-.27 1.67-.75 2.87-1.45 3.6zm-18.85 2c0 .07-.04.24-.1.5-.33.77-.73 1.15-1.2 1.15-.23 0-.43-.12-.6-.35-.3-.23-.58-.75-.85-1.55-.13-.53-.25-1.2-.35-2-.3-2.53-.45-3.85-.45-3.95 0-1.2.2-1.87.6-2 .3 0 .7.38 1.2 1.15-.5.67-.83 1.27-1 1.8-.07.33-.1 1.05-.1 2.15 0 1.37.03 2.32.1 2.85h.25c.1.1.35.15.75.15.3 0 .45-.05.45-.15 0-.13 0-.25 0-.35 0-.57.03-1.55.1-2.95.1-1.3.15-2.07.15-2.3v-.1c.8 1.67 1.2 3.22 1.2 4.65 0 .4 0 .75 0 1.05l-.15.25zm-14.75 4.55h-.15c-.07.07-.3.1-.7.1-.33 0-.62 0-.85 0-.93-.3-1.65-1.25-2.15-2.85-.3-.87-.45-2.02-.45-3.45 0-1.43.23-2.32.7-2.65.4-.23.92.05 1.55.85 1.43 1.9 2.15 4.28 2.15 7.15v.5l-.1.1v.25zm-21.42.58L166 32.2c0-.9.23-1.35.7-1.35.57 0 1.12.37 1.65 1.1.87.97 1.5 2 1.9 3.1l.15.1c.02 0 .03.02.05.02.03.05.05.16.05.33l.25 1c0 .3.03.62.1.95 0 .07 0 .22 0 .45 0 .1 0 .18 0 .25-.07.3-.13.5-.2.6-.1.23-.43.35-1 .35-.53 0-1.12-.4-1.75-1.2.3 0 .5-.08.6-.25l.2-.1.15-.5c0-.07-.2-1.1-.6-3.1-.23-1.1-.55-1.97-.95-2.6-.4.07-.65.47-.75 1.2-.07.23-.1.47-.1.7 0 .3.06.64.18 1.08zm18.92-8.68c-.5.07-.87.5-1.1 1.3-.17.63-.25 1.23-.25 1.8 0 .3.2.82.6 1.55.23.53.52.97.85 1.3.3-.1.53-.3.7-.6-.53-3.5-.8-5.28-.8-5.35zM135.2 55.3c-.53.17-.88.37-1.05.6-.23-.23-.67-1.22-1.3-2.95-.8-1.93-1.2-3.13-1.2-3.6 0-1.1.28-1.65.85-1.65.4 0 .98.35 1.75 1.05 1.3 1.27 2.1 2.53 2.4 3.8.07.17.1.3.1.4 0 .07 0 .22 0 .45-.07-.3-.13-.62-.2-.95-.73-1.67-1.77-2.67-3.1-3 .13.4.6 1.83 1.4 4.3.23.57.43 1.05.6 1.45-.07.07-.15.1-.25.1zm14.55-16.55c.1-.33.3-.57.6-.7.33-.1.77.13 1.3.7.57.63 1.05 1.38 1.45 2.25s.6 1.67.6 2.4c-.57 1.5-.97 2.37-1.2 2.6-.17.17-.28.25-.35.25 0-.17.03-.25.1-.25-.87-.87-1.33-2.1-1.4-3.7-.23-1.73-.48-2.92-.75-3.55-.13 0-.25 0-.35 0zm17.55 147.7c-.87-4.07-2.18-7.53-3.95-10.4l-.35.15c0 .07 0 .3 0 .7 0 .8.43 3.3 1.3 7.5 1.2 4.93 1.88 7.92 2.05 8.95 0 .17.23 3.58.7 10.25 0 .8.03 1.55.1 2.25-.53-1.43-.92-3.02-1.15-4.75.07-3.9-.1-6.83-.5-8.8-.4-2.73-1.58-6.35-3.55-10.85-2-4-3-6.12-3-6.35 0-3.27 1-3.93 3-2v.1l.8.6v.1c.17.27.37.47.6.6.87 1.2 1.58 2.48 2.15 3.85.17.13.28.33.35.6.57 1.17.97 2.58 1.2 4.25.07.73.15 1.82.25 3.25zm2.25 22.75l.1-.35c-.13-1.5-.32-3.42-.55-5.75.3 1.93.65 3.85 1.05 5.75-.07.07-.15.15-.25.25-.17.07-.28.1-.35.1zm-25.6-37.65c1.03 1.33 1.9 2.88 2.6 4.65 1.03 2.7 1.9 5.92 2.6 9.65 0 .23.05.7.15 1.4-.23-.93-.52-1.88-.85-2.85-1.97-5.57-2.95-8.38-2.95-8.45 0-.23 0-.4 0-.5-.1-.07-.3-.3-.6-.7-.4.4-.6 1-.6 1.8 0 .4.67 2.67 2 6.8 1.43 4.43 2.18 7.22 2.25 8.35.27.93.52 3.52.75 7.75.23 3.17.63 5.62 1.2 7.35.3-.63.57-1.93.8-3.9.1-.97.15-1.77.15-2.4.47 2.93.7 4.57.7 4.9 0 .3 0 .53 0 .7-.07.07-.1.3-.1.7-.27-.07-.67-.1-1.2-.1l-.5.5c-.3.3-.57.45-.8.45-.4 0-.92-2.27-1.55-6.8-.73-5.33-1.22-8.95-1.45-10.85-.33-2.07-1.53-5.48-3.6-10.25-1.97-4.53-2.95-7-2.95-7.4 0-1.9.4-2.97 1.2-3.2.47-.07 1.1.28 1.9 1.05.17.27.37.52.6.75.07.23.15.43.25.6zm58.75 4.15c.23.73.43 1.42.6 2.05 0 .07 0 .13 0 .2.4 3.27.63 6.5.7 9.7.07.63.35 3.85.85 9.65.63 5.57.95 8.73.95 9.5 0 .4-.17.72-.5.95-.13.17-.6.45-1.4.85.07-.57.1-.88.1-.95 0-2.93-.8-8.73-2.4-17.4-1.5-8.1-2.53-12.98-3.1-14.65-.3.23-.48.58-.55 1.05 0 .1 0 .18 0 .25-.33-1.6-.5-2.63-.5-3.1 0-1.6.28-2.47.85-2.6.4-.17.8-.05 1.2.35.3.13.57.33.8.6.4.53.8 1.05 1.2 1.55.07.07.15.22.25.45l.6.95c.07.23.18.43.35.6zm-23.6-2.95c.23.23.43.55.6.95.23.47.43 1.02.6 1.65.47 1.27.9 2.53 1.3 3.8.8 2.7 1.2 5.13 1.2 7.3 0 .7.47 3.87 1.4 9.5.8 5.57 1.43 9.7 1.9 12.4-.07.1-.25.15-.55.15-.33 0-.53-.05-.6-.15-.27.57-.43.85-.5.85-.17.33-.52.5-1.05.5l-2.75-17.4c-.17-.73-.28-1.42-.35-2.05-.9-7.4-1.35-11.33-1.35-11.8 0-.47-.18-.9-.55-1.3 0 .07-.05.18-.15.35l-.45-2.4c0-2.07.27-2.98.8-2.75.17.1.33.23.5.4zm120.15-35.9c.23-.47.52-.95.85-1.45.07-.23.18-.47.35-.7.63-1.03 1.18-1.55 1.65-1.55.4 0 .6.75.6 2.25 0 .1-.08.58-.25 1.45 0 .17-.07.28-.2.35-.1.57-.23 1.37-.4 2.4-.7 2.53-1.05 4.28-1.05 5.25 0 2.13-.23 5.15-.7 9.05v18.7c-.23.47-.35 1.22-.35 2.25l-.25.15c-.17 0-.45 0-.85 0-.17 0-.37 0-.6 0 .23-1.67.35-3.45.35-5.35 0-4.7 0-8.08 0-10.15 0-5.23.05-8.7.15-10.4.4-3.87 1.18-7.28 2.35-10.25-.07-.13-.27-.25-.6-.35h-.45c-.87 2-1.58 5.27-2.15 9.8.17-2.53.28-5.03.35-7.5 0-.33.08-.7.25-1.1.07-.3.15-.58.25-.85 0-.13 0-.25 0-.35.07-.13.18-.37.35-.7.07-.23.15-.43.25-.6 0-.07.03-.18.1-.35zm11.8 27.55c.33-2.07.53-4.3.6-6.7.07-1.5.1-4.37.1-8.6 0-1.1.17-4.67.5-10.7.4-5.87.6-8.85.6-8.95 0-.3-.17-.5-.5-.6-.07-.07-.27-.1-.6-.1v.1c-.4 2.3-.87 8.07-1.4 17.3-.16 1.13-.24 2.17-.25 3.15l-.1-5.9c.23-5.17.35-9.02.35-11.55 0-.87.03-1.67.1-2.4 0-.23 0-.43 0-.6.1-.23.15-.43.15-.6.23-.7.47-1.42.7-2.15.17-.23.28-.5.35-.8.07-.1.1-.22.1-.35l.6-1c.23-.3.4-.57.5-.8.7-.97 1.33-1.45 1.9-1.45.47 0 .7.6.7 1.8 0 2-.47 5.42-1.4 10.25-1.13 5.1-1.73 8.52-1.8 10.25-.23 2.7-.27 6.08-.1 10.15.07 6.83.1 10.32.1 10.45l-.1.15c-.17.07-.45.1-.85.1-.1 0-.18-.15-.25-.45zm-49.45-3.95c0-.33 0-.65 0-.95 0-.97.2-1.85.6-2.65.23-.37.47-.72.7-1.05.23-.33.55-.65.95-.95.57-.47 1.05-.58 1.45-.35.53.07.8.58.8 1.55 0 .53-.2 1.68-.6 3.45-.3 1.9-.45 3.05-.45 3.45 0 .73.23 4.58.7 11.55.63 7.07.95 11.63.95 13.7 0 1.6-.08 2.92-.25 3.95l-.1.25c-.17.07-.4.1-.7.1-1.13 0-1.9-1.07-2.3-3.2.4-17.5.6-27.72.6-30.65 0-.4-.03-.6-.1-.6l-.1.15c-.57 1.1-1.05 4.75-1.45 10.95-.07-.47-.1-.95-.1-1.45-.4-3-.6-5.42-.6-7.25zm21.2 22.15c.07-3.17.27-7.3.6-12.4.47-11.5.7-18.53.7-21.1 0-.37-.03-.55-.1-.55-.23 0-.4 0-.5 0-.87 1.03-1.45 3.33-1.75 6.9 0-2 0-3.6 0-4.8 0-.37 0-.75 0-1.15 0-.1.04-.2.1-.25 0-.63.12-1.18.35-1.65 0-.17.03-.33.1-.5v-.1c.1-.27.27-.55.5-.85v-.1c.4-.67.83-1.18 1.3-1.55.57-.57 1.13-.65 1.7-.25.4.23.6 1.02.6 2.35 0 .67-.33 2.1-1 4.3-.3 1.03-.65 2.15-1.05 3.35v20.5c-.07.23-.07.63 0 1.2.17.57.25.88.25.95 0 .63-.12 2.5-.35 5.6-.1 0-.18 0-.25 0-.23.07-.52.1-.85.1-.17 0-.28 0-.35 0zm-42.45-14.75c0-1.27.25-2.42.75-3.45v-.15c.13-.3.32-.57.55-.8.1 0 .15-.08.15-.25.07 0 .1-.05.1-.15.33-.13.65-.32.95-.55.57-.17 1.13-.02 1.7.45.53.57.8 1.57.8 3 0 .13-.2 2.87-.6 8.2-.47 5.17-.7 8.47-.7 9.9 0 1.43.23 3.78.7 7.05.5 3.9.83 6.17 1 6.8l-.25.35c-.1.07-.35.1-.75.1-.13 0-.37-.47-.7-1.4 0-.57 0-1.13 0-1.7 0-1.43-.35-5.97-1.05-13.6-.8-7.63-1.2-12.48-1.2-14.55 0-.3.12-.53.35-.7.17-.17.2-.28.1-.35-1.03.4-1.58 1.72-1.65 3.95-.07.4-.07.87 0 1.4-.33-1.9-.5-2.88-.5-2.95 0-.17.08-.37.25-.6zm-17.05.95c1.03.8 1.87 2.23 2.5 4.3 0 3.33.17 6.38.5 9.15.07 1.37.3 4.47.7 9.3.4 5.17.6 8.18.6 9.05 0 1.13-.03 1.9-.1 2.3-.33 1.03-.93 1.67-1.8 1.9-.7-.87-1.05-2.27-1.05-4.2.13-2.37.13-3.75 0-4.15-.57-2.63-1.02-4.98-1.35-7.05 0-.47-.03-.9-.1-1.3-.47-5.87-.7-10.67-.7-14.4 0-.27 0-.47 0-.6 0-.33-.17-.7-.5-1.1-.47 0-.82 1.32-1.05 3.95 0 .4 0 1.07 0 2-.8-3.47-1.2-5.65-1.2-6.55 0-.93.2-1.68.6-2.25 0-.07 0-.15 0-.25.47-.47 1.02-.7 1.65-.7l.1.1c.4 0 .77.17 1.1.5h.1zm87.15-129.95c-.3-.4-.45-.72-.45-.95 0-.3.03-.62.1-.95 0-.4.08-.75.25-1.05 0 .23.08.43.25.6.23.23.47.5.7.8.3-.3.85-.97 1.65-2 .87-1.27 1.5-2.15 1.9-2.65l-.1-.45c-.57-.1-1.2.05-1.9.45.7-.63 1.3-.95 1.8-.95.53.17.8.57.8 1.2 0 .23 0 .43 0 .6-.17.7-.63 1.88-1.4 3.55 0 .17-.05.33-.15.5-.8 1.83-1.27 2.75-1.4 2.75-.4 0-.72-.12-.95-.35-.33-.17-.62-.42-.85-.75-.07-.07-.15-.18-.25-.35zm12.75 9.55l-.1-.1c-.73-.73-1.1-1.13-1.1-1.2 0-.1.2-.55.6-1.35 0-.07.08-.18.25-.35l.1-.35c.1-.4.27-.75.5-1.05 0-.23.03-.43.1-.6.17-.23.33-.43.5-.6l.1-.35c1.2-1.67 2.43-2.5 3.7-2.5 0 .07.05.1.15.1 0 .17 0 .37 0 .6 0 .57-.45 2.15-1.35 4.75-.87 2.7-1.42 4.05-1.65 4.05-.47 0-1.07-.35-1.8-1.05zm4.4-7.75h-.2c-.57.17-1.45 1.03-2.65 2.6-1.27 1.6-1.9 2.72-1.9 3.35 0 .17.08.37.25.6.23.4.43.72.6.95 2.7-4.3 4.05-6.63 4.05-7 0-.33-.05-.5-.15-.5zm10.5 40.05c.33-1.43.7-2.82 1.1-4.15.07-.57.22-1.17.45-1.8v-.15c.5-1.5 1.07-2.88 1.7-4.15.87-2.3 1.58-3.37 2.15-3.2.7.07 1.05 1.65 1.05 4.75 0 1.37-.8 5.65-2.4 12.85-1.67 7.5-2.5 11.28-2.5 11.35-.3 2.63-.45 6.65-.45 12.05-.17 4.67-1.05 8.35-2.65 11.05.4-3.1.8-7.38 1.2-12.85.47-6.6.7-10.82.7-12.65 0-1.33.57-4.12 1.7-8.35 1.03-4.13 1.55-6.55 1.55-7.25 0-.33-.05-.53-.15-.6-.13 0-.28-.03-.45-.1-1.37 3.17-2.48 6.73-3.35 10.7-.97 4.07-1.48 7.8-1.55 11.2-.17 1.27-.32 2.5-.45 3.7.37-6.67.68-11.03.95-13.1.4-3.27.87-6.37 1.4-9.3zm-1.9 40.65c0-.4.03-.8.1-1.2 0 .23.08.43.25.6-.17.33-.28.53-.35.6zm-11.9 29.1c.4-5.33.8-10.47 1.2-15.4.77-10.33 1.15-16.53 1.15-18.6 0-.4-.03-.63-.1-.7l-.1-.1c-1.2 1.8-2.2 7.2-3 16.2-.57 6.5-.85 11.67-.85 15.5 0 1.27 0 2.05 0 2.35v.15c-.07-.1-.13-.3-.2-.6 0-.8 0-1.23 0-1.3 0-8.2.23-15.4.7-21.6.4-4.7.92-8.6 1.55-11.7.07-.47.15-.9.25-1.3.07-.23.1-.43.1-.6.23-.77.43-1.48.6-2.15.17-.13.25-.25.25-.35.07-.4.18-.75.35-1.05.7-1.67 1.45-2.78 2.25-3.35.47.57.78 1.32.95 2.25 0 3.27-.67 10.75-2 22.45-.63 6.03-1.43 12.55-2.4 19.55-.07 0-.15.07-.25.2-.07.1-.22.15-.45.15z" class="st23"/>
    <path d="M85.4 109.65l-.1.15v.1h-.15l-1.2.7c-.23 0-.43.08-.6.25-.23-.53-.43-1.08-.6-1.65-.7-2.3-1.05-3.65-1.05-4.05v-.75c1.6.1 2.75 1.38 3.45 3.85.17.4.25.87.25 1.4zm33.65-42.2h.2c1.6 1.27 4.38 3.18 8.35 5.75 4.63 3 8.1 4.93 10.4 5.8-3.97 0-8.73-1.87-14.3-5.6-1.67-1.17-3.3-2.43-4.9-3.8.3-.23.45-.55.45-.95v-.35c-.13-.33-.2-.62-.2-.85zm7.35 20.85c-.23 0-.42 0-.55 0-1.83-.13-3.15-.2-3.95-.2-2.47 0-6.52-.88-12.15-2.65-2.87-.87-5.02-1.62-6.45-2.25.07-.1.1-.18.1-.25.17-.23.25-.75.25-1.55 0-.17-.08-.45-.25-.85 2 .97 5.15 2.25 9.45 3.85 5.87 2.07 10.38 3.37 13.55 3.9zm-35 5.75l9.5 3.2c4.87 1.6 8.48 2.68 10.85 3.25h-2.35c-8.03-.97-13.13-1.65-15.3-2.05-1.03-.17-1.9-.32-2.6-.45.17 0 .25-.05.25-.15.13-.17.25-.28.35-.35.17-.17.25-.37.25-.6 0-.87-.32-1.82-.95-2.85zm17.75 18.25c-.4-.27-.88-.43-1.45-.5.73 0 1.13 0 1.2 0h.25v.5zm-27.3 20.95c0-.3-.05-.53-.15-.7-.07-1.37-.18-2.52-.35-3.45.8.3 1.52.5 2.15.6 1.9.4 4.85.6 8.85.6 2.77 0 5.55.27 8.35.8 1.4.4 2.58.68 3.55.85-.3.17-.9.28-1.8.35-4.6.17-10.15.48-16.65.95H82.9zm-.7-5.25c0-.07 0-.13 0-.2v-.25c.45 0 .8 0 1.02 0-.22 0-.4.1-.58.25-.16.07-.3.13-.44.2zm10.35 25.15c-.17-.7-.37-1.37-.6-2 .17-.1.28-.22.35-.35-.23 0-.38-.05-.45-.15-.33-.8-.58-1.55-.75-2.25.5.23 1.13.43 1.9.6 2.33 0 5.52-.48 9.55-1.45 2.3-.47 3.93-.9 4.9-1.3.07.17.1.28.1.35 0 .57-.95 1.08-2.85 1.55-3 .8-5.15 1.43-6.45 1.9-.63.33-2.02 1.13-4.15 2.4-.63.33-1.15.57-1.55.7zm14.05 11.45c-.4-1.43-.95-2.73-1.65-3.9 1.6-.8 3.87-2 6.8-3.6 3.17-1.83 5.75-3.22 7.75-4.15 0 .07 0 .25 0 .55 0 .8-2.58 3.2-7.75 7.2-2.17 1.67-3.88 2.97-5.15 3.9zm14.7 5.4c.3-.17.62-.45.95-.85 1.27-1.43 2.02-2.23 2.25-2.4l-.5-.1c-.23 0-.35-.2-.35-.6 1.03-1.43 2.12-2.83 3.25-4.2.87-1.33 1.53-2.43 2-3.3 0 .23 0 .38 0 .45 0 .73-.95 3.48-2.85 8.25-1.27 3.17-2.3 5.55-3.1 7.15-.07-.23-.1-.43-.1-.6-.27-1.03-.67-2.12-1.2-3.25-.1-.13-.22-.32-.35-.55zM263.85 41c2.47-2.3 4.85-4.65 7.15-7.05 2.77-2.83 4.98-5.37 6.65-7.6v.6c.33.8.58 1.35.75 1.65-.87 1.43-1.98 3.03-3.35 4.8-3.4 4.2-6.13 7.13-8.2 8.8-.27-.33-.4-.53-.4-.6 0-.07 0-.18 0-.35l-.6.45c-.23.27-.55.4-.95.4-.3 0-.57 0-.8 0l-.25-.4c0-.07 0-.25 0-.55V41zm-13.1-.45c.8-.8 1.75-2.35 2.85-4.65 1.27-2.87 1.93-4.67 2-5.4.17-.4 1-2.18 2.5-5.35.17-.07.25-.18.25-.35.17.07.28.1.35.1.4 0 .77-.15 1.1-.45-.4 2.2-1.23 4.73-2.5 7.6-2.07 5.27-4.13 8.13-6.2 8.6-.17 0-.28-.03-.35-.1zm42.8-9.2c.13.23.45.43.95.6-1.03 1.83-2.23 3.62-3.6 5.35-4.6 6.43-8.37 9.65-11.3 9.65h-.15c1.83-1.17 4.62-3.98 8.35-8.45 2.63-3.1 4.55-5.48 5.75-7.15zm-58.3 10.35c.3-1.33.65-3.15 1.05-5.45.73-4.7 1.17-8.43 1.3-11.2l.15-.15h.35c.17-.07.37-.1.6-.1-.23 1.43-.55 3.27-.95 5.5-.97 6.1-1.65 9.9-2.05 11.4h-.45zm-13.15-2.35c-.13-.97-.32-2.32-.55-4.05-.5-3.43-.9-5.95-1.2-7.55.47-.13.9-.32 1.3-.55.23 1.03.35 1.82.35 2.35-.07.97-.03 2.48.1 4.55l.15 3.35c0 .4-.05 1.03-.15 1.9zm-3.45-11.6c.27.1.58.15.95.15h.15c-.17.3-.25.65-.25 1.05v1.55c0 .73.03 1.5.1 2.3 0 .23 0 .43 0 .6-.07-.4-.1-.85-.1-1.35-.3-1.83-.58-3.27-.85-4.3zM200.9 30.5c.17.23.37.35.6.35.47 0 .87-.38 1.2-1.15.06-.26.1-.43.1-.5 0 .07 0 .2 0 .35.33 1.03.93 3.1 1.8 6.2 1.83 6.03 2.9 9.53 3.2 10.5v.1l-.1.15c-.07.07-.3.1-.7.1-1.43 0-2.95-3.05-4.55-9.15-.8-2.87-1.32-5.18-1.55-6.95zm-14.55 3.35c.23 0 .52 0 .85 0 .4 0 .63-.03.7-.1h.15c.47 1.17 1.18 2.78 2.15 4.85 1.8 4.13 3.27 7.12 4.4 8.95-.1 0-.15-.03-.15-.1v.1c-.07.1-.27.15-.6.15-.47 0-2.02-2.67-4.65-8-1.27-2.63-2.22-4.58-2.85-5.85zm-15.5 4.3c1.2 1.1 2.55 2.53 4.05 4.3.9 1.17 3.02 4.15 6.35 8.95l-.25.2c-.17.1-.4.15-.7.15-.97 0-3.23-2.43-6.8-7.3-1.77-2.3-3.05-4.08-3.85-5.35.57 0 .9-.12 1-.35.07-.1.13-.3.2-.6zm-34.2 14.4c.4.27.83.58 1.3.95-.47-.23-.87-.42-1.2-.55 0-.1-.03-.23-.1-.4zm-1.45 2.75c.1 0 .18-.03.25-.1.1 0 .3-.08.6-.25 0-.07.05-.1.15-.1.3-.1.48-.35.55-.75 1.93 1.67 4.4 3.62 7.4 5.85 3.73 2.63 6.8 4.47 9.2 5.5v.35c-.1.17-.15.28-.15.35-.07.1-.3.15-.7.15-2.53 0-6.5-2.2-11.9-6.6-2.3-1.97-4.1-3.43-5.4-4.4zm17.3-9.3c.23-.23.63-1.1 1.2-2.6.07.07.15.15.25.25 0-.1.03-.18.1-.25 6.67 9.53 10.97 14.73 12.9 15.6-.17 0-.3 0-.4 0-3.07 0-6.67-2.67-10.8-8-1.2-1.57-2.28-3.23-3.25-5zm13.35 132.95c-.07-.27-.18-.47-.35-.6-.57-1.37-1.28-2.65-2.15-3.85-.23-.13-.43-.33-.6-.6 1.2-2.47 2.12-4.45 2.75-5.95.57-1.2.97-2.27 1.2-3.2-.1 1.33-.22 3.6-.35 6.8-.23 3.4-.4 5.87-.5 7.4zm-19.3-2.75c-.7-1.77-1.57-3.32-2.6-4.65.3-.4.57-.8.8-1.2.8-1.2 1.2-2 1.2-2.4 0-.4.52-2.1 1.55-5.1.33-1.13.65-2.02.95-2.65.17 0 .33.12.5.35.07.17.1.45.1.85 0 .4-.43 2.9-1.3 7.5-.63 3.5-1.03 5.93-1.2 7.3zm54-14.9c-.07-.17-.15-.33-.25-.5l.15-.1c.07.23.1.43.1.6zm2.75 16.45c-.17-.63-.37-1.32-.6-2.05.07-.47.1-1.13.1-2 0-.27 0-.47 0-.6.33 2.13.5 3.48.5 4.05 0 .23 0 .43 0 .6zm-3.6-16.45c0 1.5.32 4.2.95 8.1.33 1.73.62 3.17.85 4.3-.4-.5-.8-1.02-1.2-1.55-.23-.27-.5-.47-.8-.6 0-.5-.05-.98-.15-1.45-.3-5.23-.45-7.93-.45-8.1 0-.07.27-.3.8-.7zm-20 12.4c.4-1.53.83-3.57 1.3-6.1.4-2.3.68-3.88.85-4.75.23.53.35 2.15.35 4.85 0 .73-.08 2.37-.25 4.9-.07 2.63-.18 4.82-.35 6.55-.4-1.27-.83-2.53-1.3-3.8-.17-.63-.37-1.18-.6-1.65zm119.55-36.85c-.07.17-.1.28-.1.35-.1.17-.18.37-.25.6-.17.33-.28.57-.35.7 0 .1 0 .22 0 .35-.1.27-.18.55-.25.85-2.77-1.5-6.22-3.48-10.35-5.95-5.17-3.1-9.15-5.37-11.95-6.8l.25-.25c1.73.8 5.5 2.6 11.3 5.4 5.17 2.3 9.07 3.88 11.7 4.75zm-11.1-16.8c.1 0 .22 0 .35 0 .57 0 4.23.92 11 2.75 4.83 1.27 8.88 2.1 12.15 2.5-.07.3-.18.57-.35.8-.23.73-.47 1.45-.7 2.15 0 .17-.05.37-.15.6 0 .17 0 .37 0 .6-11.67-4.3-19.1-7.43-22.3-9.4zm-.6-.6c0 .07.05.18.15.35v.1c-.1-.07-.22-.18-.35-.35 0-.07.07-.1.2-.1zm-25.35 37.4c-.4.8-.6 1.68-.6 2.65 0 .3 0 .62 0 .95-3.43-3.17-5.62-5.72-6.55-7.65-.27-.63-1.38-2.13-3.35-4.5-1.9-2.17-2.85-3.4-2.85-3.7 0-.8.63-.83 1.9-.1 1.17 1.17 2.6 2.7 4.3 4.6 2.37 2.57 4.75 5.15 7.15 7.75zm4.5-17.75c1.2.5 2.8 1.22 4.8 2.15.53.23 2.55 1.35 6.05 3.35 2 1.1 3.58 1.9 4.75 2.4v.1c-.07.17-.1.33-.1.5-.23.47-.35 1.02-.35 1.65-.06 0-.1-.05-.1-.15 0 .16 0 .3 0 .4l-.15.35c-.3-.23-3.63-2.67-10-7.3-2-1.43-3.63-2.58-4.9-3.45zm-33.25 13.1c.7 1.13 1.65 2.77 2.85 4.9 2.3 4.07 3.9 6.45 4.8 7.15v.15c-.5 1.03-.75 2.18-.75 3.45-1.33-2.3-2.72-4.97-4.15-8-2-4.2-3-6.55-3-7.05 0-.4.08-.6.25-.6zm-13.1 16.95c-.33-1.03-.73-2.35-1.2-3.95-.97-3.57-1.45-5.83-1.45-6.8 0-.47.05-.73.15-.8.3.93.88 2.52 1.75 4.75.97 2.47 1.8 4.45 2.5 5.95l-.1-.1c-.63 0-1.18.23-1.65.7 0 .1 0 .18 0 .25zm2.95-.35h-.1c-.07-.33-.1-.65-.1-.95.07.3.13.62.2.95zM333.35 57.95c.17.53.32 1.37.45 2.5.1.53.27 1 .5 1.4-.73.17-1.88.45-3.45.85-3.1.7-4.77 1.1-5 1.2-1.93.63-6.38 1.67-13.35 3.1-6.7 1.43-10.52 2.15-11.45 2.15-.57 0-1.28-.25-2.15-.75.23-.13.52-.28.85-.45v.1c.07 0 .3 0 .7 0 .17 0 6.28-1.98 18.35-5.95.4-.07 3.85-.98 10.35-2.75 1.6-.53 3-1 4.2-1.4zm-38.05.45c2.8-.53 8.45-2.92 16.95-7.15 4.43-2.13 7.88-3.97 10.35-5.5-.4.8-.6 1.25-.6 1.35 0 .07.37.47 1.1 1.2l.1.1c-2.07 1.1-5.17 2.45-9.3 4.05-9.6 3.27-15.75 5.42-18.45 6.45-.1.3-.15.13-.15-.5zm20.15-24.9v.35c.17.17.25.4.25.7 0 .73-.6 1.73-1.8 3 .1-.17.15-.33.15-.5.77-1.67 1.23-2.85 1.4-3.55zm-5 5.35c.1.17.18.28.25.35.23.33.52.58.85.75-1.77 1.5-3.97 3.28-6.6 5.35-6.97 5.23-11.73 8.22-14.3 8.95-.3-.17-.45-.33-.45-.5l-.15-.1c6.13-4.37 10.75-7.63 13.85-9.8 2.7-1.97 4.88-3.63 6.55-5zm13.6 3.95c-.4.07-.8.22-1.2.45.47-.3.9-.57 1.3-.8l-.1.35zm15.15 33.75c-.4 1.33-.77 2.72-1.1 4.15-1.83.57-5.25 1.25-10.25 2.05-8.27 1.27-14.5 1.9-18.7 1.9-.57 0-1.37-.25-2.4-.75-.63-.3-1.07-.5-1.3-.6 1.9-.3 4.72-.85 8.45-1.65 3.73-.7 7.2-1.45 10.4-2.25.8-.17 4.57-.92 11.3-2.25 1.27-.17 2.47-.37 3.6-.6zM306.05 95.5c.63.4 1.58.63 2.85.7 4.7.63 7.48 1.12 8.35 1.45.33.07 3 .77 8 2.1 3.57.97 6.47 1.57 8.7 1.8-.17.4-.57.8-1.2 1.2-.97.8-1.68 1.2-2.15 1.2-2.37 0-6.73-1.12-13.1-3.35-5.4-1.9-9.22-3.6-11.45-5.1zm-1.1-.85c.1.17.18.28.25.35-.17-.07-.37-.18-.6-.35.17 0 .28 0 .35 0zm19.7 20c-1.03-.37-2.38-.95-4.05-1.75-4.23-1.9-6.62-2.9-7.15-3-4.23-.87-7.7-1.62-10.4-2.25-4.27-.97-6.77-1.85-7.5-2.65.87.5 2.5.75 4.9.75 7.87 0 14.82.95 20.85 2.85.87.3 2.38.85 4.55 1.65 0 .1-.08.22-.25.35-.17.67-.37 1.38-.6 2.15 0 .17-.03.37-.1.6-.1.4-.18.83-.25 1.3z" class="st24"/>
    <path d="M108.75 107.4c.57.07 1.05.23 1.45.5v.1c0 .17 0 .33 0 .5-.33.13-.9.32-1.7.55h-.1l-1.9.25c-.17 0-.28 0-.35 0-1.9-.17-4.33-.4-7.3-.7-7.23-.8-11.63-1.2-13.2-1.2v-.1l-.5-1.2c-.07-.23-.1-.4-.1-.5.23-.23.7-.35 1.4-.35.1 0 .23.12.4.35.37 0 .75 0 1.15 0 1.2.1 2.52.18 3.95.25.23 0 1.03.17 2.4.5 1.57.3 2.72.53 3.45.7.63.23 2.65.35 6.05.35.4 0 .77 0 1.1 0 .07 0 .18 0 .35 0h3.45zm-25.52 15.75h.02c.4.17.88.43 1.45.8 1.67.67 5.87 1 12.6 1 .8 0 1.88.07 3.25.2 1.73 0 3.17.08 4.3.25.13 0 .32 0 .55 0 .1.07.15.27.15.6 0 .8-.05 1.32-.15 1.55h-.1c-.97-.17-2.15-.45-3.55-.85-2.8-.53-5.58-.8-8.35-.8-4 0-6.95-.2-8.85-.6-.63-.1-1.35-.3-2.15-.6-.07-.4-.13-.77-.2-1.1.13-.07.28-.13.45-.2.16-.16.35-.24.58-.25zm37.07-60.1c2.07.87 4.93 2.33 8.6 4.4 6.6 3.67 10.5 5.78 11.7 6.35-.23.17-.4.4-.5.7-.07.07-.3.1-.7.1-.17 0-.28 0-.35 0-2.3-.87-5.77-2.8-10.4-5.8-3.97-2.57-6.75-4.48-8.35-5.75zm-27.85 26.6c-.1-.17-.27-.4-.5-.7.17 0 .28 0 .35 0 .8.23 1.95.55 3.45.95 2.63.87 4.5 1.53 5.6 2 .33.1 2.68.53 7.05 1.3 4.07.8 6.33 1.4 6.8 1.8 0 .23-.03.4-.1.5-.27.3-.52.5-.75.6h-1.55c-2.37-.57-5.98-1.65-10.85-3.25l-9.5-3.2zm35-5.75c-3.17-.53-7.68-1.83-13.55-3.9-4.3-1.6-7.45-2.88-9.45-3.85 0-.37-.07-.75-.2-1.15.47.07 1.1.27 1.9.6 1.27.47 3.45 1.37 6.55 2.7 2.07.73 4.85 1.5 8.35 2.3 1.9.4 4.75 1.03 8.55 1.9-.07.17-.1.28-.1.35l-.1.1v.15c-.5.4-1.15.67-1.95.8zM91.1 144c-.3-.63-.62-1.32-.95-2.05.17-.23.45-.35.85-.35.23 0 .47.17.7.5.17.23.42.35.75.35 2.6 0 5.33-.2 8.2-.6 2.93-.3 4.88-.45 5.85-.45.17.07.4.13.7.2.1.17.18.25.25.25-.97.4-2.6.83-4.9 1.3-4.03.97-7.22 1.45-9.55 1.45-.77-.17-1.4-.37-1.9-.6zm13.85 12.3c-.07-.27-.15-.43-.25-.5l-.25-.5h-.1c1.2-.87 2.47-1.7 3.8-2.5 4.63-2.77 8.37-4.27 11.2-4.5l.15.25c-2 .93-4.58 2.32-7.75 4.15-2.93 1.6-5.2 2.8-6.8 3.6zm16.35 9.3c-.27-.5-.55-.95-.85-1.35.47-.93 1.27-2.2 2.4-3.8 2.37-3.5 4.35-5.68 5.95-6.55 0 .07.03.1.1.1v.15c-.47.87-1.13 1.97-2 3.3-1.13 1.37-2.22 2.77-3.25 4.2 0 .4.12.6.35.6l.5.1c-.23.17-.98.97-2.25 2.4-.33.4-.65.68-.95.85zM277.45 24.8c0 .07 0 .15 0 .25l.2 1.3c-1.67 2.23-3.88 4.77-6.65 7.6-2.3 2.4-4.68 4.75-7.15 7.05.3-.63 2.28-3.22 5.95-7.75 2.93-3.67 5.48-6.48 7.65-8.45zm2 22.15c-.4-.07-.67-.18-.8-.35-.17-.07-.25-.15-.25-.25v-.1h-.15c0-.17 0-.37 0-.6 0-.23 1.55-1.82 4.65-4.75 3.37-3.2 5.32-5.12 5.85-5.75 2-2.7 3.28-4.45 3.85-5.25.23-.13.47-.33.7-.6-.1.27-.15.55-.15.85l.15.85.25.1v.25c-1.2 1.67-3.12 4.05-5.75 7.15-3.73 4.47-6.52 7.28-8.35 8.45zm-21.1-22.15c0 .17-.08.28-.25.35-1.5 3.17-2.33 4.95-2.5 5.35-.07.73-.73 2.53-2 5.4-1.1 2.3-2.05 3.85-2.85 4.65-.17-.1-.37-.27-.6-.5-.1-.07-.15-.15-.15-.25 1.67-4.83 3.42-9.32 5.25-13.45.8-2.07 1.52-3.7 2.15-4.9 0 .23 0 .43 0 .6 0 .23 0 .4 0 .5 0 .07 0 .45 0 1.15.1.57.42.93.95 1.1zm-20.25.1h-.35l-.15.15c-.13 2.77-.57 6.5-1.3 11.2-.4 2.3-.75 4.12-1.05 5.45v.15c-.33-.23-.53-.55-.6-.95-.17-.33-.25-.53-.25-.6 0-.17.23-1.92.7-5.25.5-3.5.75-5.65.75-6.45.07-.57.1-1.55.1-2.95 0-.73.08-1.33.25-1.8v.1c.07.63.35 1.03.85 1.2.23-.57.42-.97.55-1.2l.4-.1c.07 0 .1.2.1.6 0 .07 0 .22 0 .45zm-17.75 2.85c.3 1.6.7 4.12 1.2 7.55.23 1.73.42 3.08.55 4.05 0 .07 0 .18 0 .35-.07.07-.1.15-.1.25v1.2c-.07.23-.3.35-.7.35-.17-.23-.28-.52-.35-.85l-1.35-7.25c0-.17 0-.37 0-.6-.07-.8-.1-1.57-.1-2.3v-1.55c0-.4.08-.75.25-1.05h.35c.07 0 .15-.05.25-.15zm-12.55 18.5c-.3-.97-1.37-4.47-3.2-10.5-.87-3.1-1.47-5.17-1.8-6.2 0-.16 0-.28 0-.35l.15-.25c.87 1.6 1.82 3.72 2.85 6.35 1.43 4.53 2.15 7.98 2.15 10.35V46l-.15.25zm-13.2 1.3c-1.13-1.83-2.6-4.82-4.4-8.95-.97-2.07-1.68-3.68-2.15-4.85v-.25l.1-.1v-.5c.8.97 1.2 1.57 1.2 1.8 0 .23.87 2.18 2.6 5.85 1.77 3.8 2.65 5.9 2.65 6.3v.7zM181 51.6l.25-.2c-3.33-4.8-5.45-7.78-6.35-8.95-1.5-1.77-2.85-3.2-4.05-4.3 0-.07 0-.15 0-.25 0-.23 0-.38 0-.45-.07-.33-.1-.65-.1-.95l-.25-1c0-.17-.02-.28-.05-.33.7.4 1.42 1.2 2.2 2.38.73 1.03 1.68 2.55 2.85 4.55 1.27 1.8 3.42 4.77 6.45 8.9l-.1.4c0 .13-.2.2-.6.2H181zm-27.65 13.85c-2.4-1.03-5.47-2.87-9.2-5.5-3-2.23-5.47-4.18-7.4-5.85 0-.07 0-.22 0-.45v-.25c0-.23 0-.38 0-.45.33.13.73.32 1.2.55.17.1.28.18.35.25l1.1.85c1.2.97 2.03 1.6 2.5 1.9.4.4 2.58 1.87 6.55 4.4 3.27 2.07 4.9 3.5 4.9 4.3v.25zm13.6-6.45c-1.93-.87-6.23-6.07-12.9-15.6 0-.1.08-.22.25-.35h.6c.57 1.8 2.4 4.3 5.5 7.5 4.2 4.43 6.58 7.02 7.15 7.75-.17.07-.25.22-.25.45v.15c-.1.07-.22.1-.35.1zm-.25 105.75c-.23.93-.63 2-1.2 3.2-.63 1.5-1.55 3.48-2.75 5.95v-.1l-.8-.6v-.1c0-.9.47-2.65 1.4-5.25.97-3.1 1.85-4.93 2.65-5.5.07 0 .22.05.45.15.17.07.25.3.25.7v1.2c0 .13 0 .25 0 .35zm-22.75 6.8c-.1-.17-.18-.37-.25-.6-.23-.23-.43-.48-.6-.75.3-.93.9-2.4 1.8-4.4 1.27-2.7 2.33-4.65 3.2-5.85h.25v.15h.1v.1c-.3.63-.62 1.52-.95 2.65-1.03 3-1.55 4.7-1.55 5.1 0 .4-.4 1.2-1.2 2.4-.23.4-.5.8-.8 1.2zm57.55 2.15c-.23-1.13-.52-2.57-.85-4.3-.63-3.9-.95-6.6-.95-8.1.1-.1.3-.27.6-.5.1.17.18.33.25.5.47 1.17.98 3.47 1.55 6.9 0 .07.03.1.1.1v.15c0 .23 0 .43 0 .6.1.23.15.43.15.6.07.87.18 1.7.35 2.5 0 .3.03.62.1.95 0 .13 0 .33 0 .6 0 .87-.03 1.53-.1 2-.17-.17-.28-.37-.35-.6l-.6-.95c-.1-.23-.18-.38-.25-.45zm-19.65-10.85c-.17.87-.45 2.45-.85 4.75-.47 2.53-.9 4.57-1.3 6.1-.17-.4-.37-.72-.6-.95.07-.5.1-1.02.1-1.55.4-2.4.8-4.4 1.2-6 .57-1.97.97-2.92 1.2-2.85v.15c.17 0 .25.12.25.35zM300.1 135.4c-.33.5-.62.98-.85 1.45-2.63-.87-6.53-2.45-11.7-4.75-5.8-2.8-9.57-4.6-11.3-5.4.8-.47 1.72-.53 2.75-.2.63.13 1.3.37 2 .7.1 0 .18.03.25.1h.1c.4.33 1.37.9 2.9 1.7 1.43.77 2.58 1.32 3.45 1.65 1.27.97 3.8 2 7.6 3.1 1.83.63 3.43 1.18 4.8 1.65zm12.25-11.45l-.6 1c0 .13-.03.25-.1.35-3.27-.4-7.32-1.23-12.15-2.5-6.77-1.83-10.43-2.75-11-2.75-.13 0-.25 0-.35 0h-.2l-.15-.15h-.1v-.1c-.1-.17-.15-.28-.15-.35h.15v-.15c.07 0 .1-.03.1-.1l2.75-.25h.1c.1 0 .18.08.25.25.17 0 .28 0 .35 0 .1 0 .18.03.25.1h.35c.1 0 .18 0 .25 0 1.43.4 3.58 1.05 6.45 1.95 1.17.47 2.55.85 4.15 1.15 1.6.4 2.63.65 3.1.75.57.23 1.17.35 1.8.35.47 0 1.18-.03 2.15-.1 1.03 0 1.9.18 2.6.55zM262.9 155.8c-.23.33-.47.68-.7 1.05-2.4-2.6-4.78-5.18-7.15-7.75-1.7-1.9-3.13-3.43-4.3-4.6.63.37 1.42.95 2.35 1.75.9.8 2.07 1.8 3.5 3v.1c1.67 1.6 3.45 3.35 5.35 5.25.4.47.72.87.95 1.2zm19.4-8.8c-1.17-.5-2.75-1.3-4.75-2.4-3.5-2-5.52-3.12-6.05-3.35-2-.93-3.6-1.65-4.8-2.15-2.93-2.07-4.4-3.05-4.4-2.95 0-.8 3.65.75 10.95 4.65 4.23 2.3 7.42 4.05 9.55 5.25v.1c-.23.3-.4.58-.5.85zm-41.2 17.25c-.9-.7-2.5-3.08-4.8-7.15-1.2-2.13-2.15-3.77-2.85-4.9.63-.23 2.22 1.52 4.75 5.25 1.67 2.47 2.9 4.33 3.7 5.6 0 .1-.03.15-.1.15 0 .17-.05.25-.15.25-.23.23-.42.5-.55.8zm-17.9 4.55c-.33-.33-.7-.5-1.1-.5-.7-1.5-1.53-3.48-2.5-5.95-.87-2.23-1.45-3.82-1.75-4.75v-.15h.1c.47 0 1.42 1.68 2.85 5.05v.1h.15v.35c.07 0 .1.03.1.1v.15l.25.25v.1c.07.17.15.4.25.7v.15c.47 1.1.98 2.25 1.55 3.45 0 .3.03.62.1.95zm72.1-110.4c0-.07.12-.22.35-.45l10.15-5.75c.17 0 .28-.08.35-.25.57-.23 1.2-.55 1.9-.95.1 0 .18-.07.25-.2 6.67-3.43 11.52-5.95 14.55-7.55.4-.23.8-.38 1.2-.45-.17.17-.33.37-.5.6-.07.17-.1.37-.1.6-.23.3-.4.65-.5 1.05l-.1.35c-.17.17-.25.28-.25.35-2.47 1.53-5.92 3.37-10.35 5.5-8.5 4.23-14.15 6.62-16.95 7.15zm38.05-.45c-1.2.4-2.6.87-4.2 1.4-6.5 1.77-9.95 2.68-10.35 2.75-12.07 3.97-18.18 5.95-18.35 5.95-.4 0-.63 0-.7 0v-.1c1.67-.87 4.25-2.07 7.75-3.6 4.43-1.8 8.75-3.38 12.95-4.75 5.8-1.9 10.18-2.97 13.15-3.2-.27.4-.4.8-.4 1.2l.15.35zm-23.25-21c-.07.33-.1.65-.1.95 0 .23.15.55.45.95-1.67 1.37-3.85 3.03-6.55 5-3.1 2.17-7.72 5.43-13.85 9.8 0-.17 0-.4 0-.7 0-.9 3.93-4.25 11.8-10.05 3.27-2.37 6.02-4.35 8.25-5.95zm-4.05 58.55c-.33-.1-.62-.27-.85-.5-.07-.07-.15-.18-.25-.35 2-.4 6.22.08 12.65 1.45 9.13 2.07 14.38 3.22 15.75 3.45.23.07.52.27.85.6.13.13.2.28.2.45v.15c0 .13-.03.28-.1.45-.07.07-.18.18-.35.35-2.23-.23-5.13-.83-8.7-1.8-5-1.33-7.67-2.03-8-2.1-.87-.33-3.65-.82-8.35-1.45-1.27-.07-2.22-.3-2.85-.7zm33.15-18.95c-1.13.23-2.33.43-3.6.6-6.73 1.33-10.5 2.08-11.3 2.25-3.2.8-6.67 1.55-10.4 2.25-3.73.8-6.55 1.35-8.45 1.65-.33-.23-.62-.38-.85-.45 5.57-1.43 12.08-2.98 19.55-4.65 6.37-1.5 11.53-2.7 15.5-3.6v.15c-.23.63-.38 1.23-.45 1.8zm-13 32.65c-.17.3-.28.65-.35 1.05-2.17-.8-3.68-1.35-4.55-1.65-6.03-1.9-12.98-2.85-20.85-2.85-2.4 0-4.03-.25-4.9-.75-.07-.07-.1-.22-.1-.45 0-1.43 3.77-1.48 11.3-.15 6.03 1.13 12.52 2.73 19.45 4.8z" class="st25"/>

    <!-- Flags Group (Repositioned onto concrete) -->
    <g id="flags" transform="translate(-30, 40)">
        <g id="flag1">
          <path d="M364.7 135.65v7.4l-4.2 2.15v-7.15z" class="st28"/>
          <path d="M364.7 135.65l-4.2 2.4-4.5-2.65 4.15-2.5z" class="st29"/>
          <path d="M355.75 142.55v-7.15l4.4 2.65v7.15z" class="st30"/>
          <path d="M362.4 98.5c0-.26-.08-.47-.24-.63-.16-.16-.37-.24-.64-.24h-.08c-.27 0-.48.08-.64.24-.16.16-.24.38-.24.64v37.88c0 .27.08.48.24.64.16.16.38.24.64.24h.08c.27 0 .48-.08.64-.24.16-.16.24-.38.24-.64V98.5z" class="st31"/>
          <path d="M348.86 100c-.53.56-1.1.25-1.7-.92v8.33c.83.8 1.6.97 2.37.5.76-.5 1.4-.98 1.92-1.47.52-.5.93-.8 1.24-.9.5-.2 1-.3 1.48-.24.9.22 1.74.6 2.48 1.1.46.32.93.6 1.4.83.26.13.53.22.8.27.32 0 .6-.02.85-.08v-7.57c-.2-.15-.4-.3-.64-.46-.43-.24-.98-.52-1.66-.85-.68-.32-1.48-.55-2.4-.68-.92-.13-1.95.04-3.1.53-1.12.48-1.78.74-1.97.76-.2 0-.55.3-1.07.85z" class="st32"/>
        </g>
        <g id="flag2" transform="translate(11, -5.5)"> <use href="#flag1" xlink:href="#flag1"/> </g>
        <g id="flag3" transform="translate(22, -11)"> <use href="#flag1" xlink:href="#flag1"/> </g>
        <g id="flag4" transform="translate(33, -16.5)"> <use href="#flag1" xlink:href="#flag1"/> </g>
        <g id="flag5" transform="translate(44, -22)"> <use href="#flag1" xlink:href="#flag1"/> </g>
    </g>

    <!-- Trees Group -->
    <g id="trees">
        <g id="tree1">
            <path d="M65.02 135.33c1.1-.63 2.4-.95 3.96-.95 1.55 0 2.87.32 3.96.95 1.1.64 1.64 1.4 1.64 2.3 0 .9-.55 1.66-1.64 2.3-1.1.63-2.4.95-3.96.95-1.55 0-2.87-.32-3.96-.96-1.1-.63-1.64-1.4-1.64-2.3 0-.88.55-1.65 1.64-2.3z" class="st35"/>
            <path d="M68.14 109.55c-.3.2-.47.4-.53.65l-2.7 9.46c-.83 2.94-1.08 6.12-.75 9.55.65 6.16 2.3 9.25 4.93 9.28h.04c2.6-.03 4.23-3.12 4.88-9.27.4-3.42.15-6.6-.7-9.54l-2.72-9.46c-.1-.25-.28-.46-.58-.65-.27-.15-.58-.22-.93-.18-.35-.04-.66.02-.93.18z" class="st36"/>
        </g>
         <g id="tree2">
            <path d="M51.42 143.68c1.1-.63 2.4-.95 3.96-.95 1.55 0 2.87.32 3.96.95 1.1.64 1.64 1.4 1.64 2.3 0 .9-.55 1.66-1.64 2.3-1.1.64-2.4.96-3.96.96-1.55 0-2.87-.32-3.96-.96-1.1-.63-1.64-1.4-1.64-2.3 0-.9.55-1.66 1.64-2.3z" class="st35"/>
            <path d="M55.14 117.85c-.3.2-.47.4-.53.65l-2.7 9.46c-.83 2.94-1.08 6.12-.75 9.55.65 6.16 2.3 9.25 4.93 9.28h.04c2.6-.03 4.23-3.12 4.88-9.27.4-3.42.15-6.6-.7-9.54l-2.72-9.46c-.1-.25-.28-.46-.58-.65-.27-.16-.58-.22-.93-.2-.35-.02-.66.04-.93.2z" class="st36"/>
        </g>
         <g id="tree3">
            <path d="M38.07 151.68c1.1-.63 2.4-.95 3.96-.95 1.55 0 2.87.32 3.96.95 1.08.64 1.63 1.4 1.63 2.3 0 .9-.55 1.66-1.64 2.3-1.1.64-2.42.96-3.97.96-1.55 0-2.87-.32-3.96-.96-1.1-.63-1.64-1.4-1.64-2.3 0-.9.55-1.66 1.64-2.3z" class="st35"/>
            <path d="M41.3 126c-.3.2-.48.4-.54.65l-2.7 9.46c-.84 2.95-1.1 6.13-.76 9.56.65 6.15 2.3 9.24 4.93 9.27h.04c2.6-.03 4.23-3.12 4.88-9.27.4-3.43.15-6.62-.7-9.55l-2.72-9.45c-.1-.25-.28-.46-.58-.65-.27-.16-.58-.22-.93-.2-.35-.02-.66.04-.93.2z" class="st36"/>
        </g>
    </g>

    <!-- Small Trees/Bushes around the stadium -->
    <g id="bushes">
        <path d="M254.87 202.67c-.78-.43-1.7-.64-2.8-.64-1.1 0-2.04.2-2.82.64-.77.43-1.16.95-1.16 1.55 0 .6.38 1.12 1.15 1.54.78.43 1.7.64 2.8.64 1.1 0 2.04-.2 2.82-.64.77-.43 1.16-.94 1.16-1.54 0-.6-.38-1.12-1.16-1.55z" class="st35"/>
        <path d="M248.2 201c0 1.13.4 2.08 1.22 2.87.8.8 1.77 1.2 2.9 1.2s2.12-.4 2.93-1.2c.8-.78 1.2-1.74 1.2-2.86 0-1.1-.4-2.07-1.2-2.86-.8-.78-1.78-1.18-2.92-1.18s-2.1.4-2.9 1.18c-.82.8-1.22 1.75-1.22 2.87z" class="st36"/>
        <path d="M239.37 207.07c-.78-.43-1.7-.64-2.8-.64-1.1 0-2.04.2-2.82.64-.77.43-1.16.94-1.16 1.55 0 .6.38 1.12 1.15 1.54.78.43 1.7.64 2.8.64 1.1 0 2.04-.2 2.82-.64.77-.42 1.16-.94 1.16-1.54 0-.6-.38-1.12-1.16-1.55z" class="st35"/>
        <path d="M232.26 205.66c0 1.12.4 2.07 1.2 2.86.8.8 1.78 1.2 2.92 1.2s2.1-.4 2.92-1.2c.8-.78 1.2-1.74 1.2-2.86 0-1.12-.4-2.08-1.2-2.87-.8-.8-1.78-1.2-2.92-1.2s-2.1.4-2.9 1.2c-.82.78-1.22 1.74-1.22 2.86z" class="st36"/>
        <path d="M222.82 211.07c-.78-.43-1.7-.64-2.8-.64-1.1 0-2.04.2-2.82.64-.77.43-1.16.94-1.16 1.55 0 .6.4 1.12 1.16 1.54.78.43 1.7.64 2.8.64 1.1 0 2.04-.2 2.82-.64.77-.42 1.16-.94 1.16-1.54 0-.6-.38-1.12-1.16-1.55z" class="st35"/>
        <path d="M215.8 209.3c0 1.13.4 2.08 1.22 2.87.8.8 1.77 1.2 2.9 1.2s2.12-.4 2.93-1.2c.8-.78 1.2-1.74 1.2-2.86 0-1.1-.4-2.07-1.2-2.86-.8-.78-1.78-1.18-2.92-1.18s-2.1.4-2.9 1.18c-.82.8-1.22 1.75-1.22 2.87z" class="st36"/>
        <path d="M206.77 213.82c-.78-.43-1.7-.64-2.8-.64-1.1 0-2.04.2-2.82.64-.77.43-1.16.94-1.16 1.55 0 .6.38 1.12 1.15 1.54.78.44 1.7.65 2.8.65 1.1 0 2.04-.2 2.82-.64.77-.4 1.16-.93 1.16-1.53s-.38-1.12-1.16-1.55z" class="st35"/>
        <path d="M199.7 212.06c0 1.12.4 2.07 1.22 2.86.8.8 1.77 1.2 2.9 1.2 1.15 0 2.12-.4 2.93-1.2.8-.78 1.2-1.74 1.2-2.86 0-1.12-.4-2.08-1.2-2.87-.8-.8-1.78-1.2-2.92-1.2s-2.1.4-2.9 1.2c-.82.78-1.22 1.74-1.22 2.86z" class="st36"/>
        <path d="M323.77 163.67c-.78-.43-1.7-.64-2.8-.64-1.1 0-2.04.2-2.82.64-.77.43-1.16.95-1.16 1.55 0 .6.38 1.12 1.15 1.54.78.43 1.7.64 2.8.64 1.1 0 2.04-.2 2.82-.64.77-.43 1.16-.94 1.16-1.54 0-.6-.38-1.12-1.16-1.55z" class="st35"/>
        <path d="M317.1 162c0 1.13.4 2.08 1.22 2.87.8.8 1.77 1.2 2.9 1.2 1.15 0 2.12-.4 2.93-1.2.8-.78 1.2-1.74 1.2-2.86 0-1.1-.4-2.07-1.2-2.86-.8-.78-1.78-1.18-2.92-1.18s-2.1.4-2.9 1.18c-.82.8-1.22 1.75-1.22 2.87z" class="st36"/>
        <path d="M313.47 169.37c-.78-.43-1.7-.64-2.8-.64-1.1 0-2.04.2-2.82.64-.77.43-1.16.94-1.16 1.55 0 .6.38 1.12 1.15 1.54.78.43 1.7.64 2.8.64 1.1 0 2.04-.2 2.82-.64.77-.42 1.16-.94 1.16-1.54 0-.6-.38-1.12-1.16-1.55z" class="st35"/>
        <path d="M306.36 167.96c0 1.12.4 2.08 1.2 2.86.8.8 1.78 1.2 2.92 1.2s2.1-.4 2.92-1.2c.8-.78 1.2-1.74 1.2-2.86 0-1.12-.4-2.08-1.2-2.87-.8-.8-1.78-1.2-2.92-1.2s-2.1.4-2.9 1.2c-.82.78-1.22 1.74-1.22 2.86z" class="st36"/>
        <path d="M303.42 175.97c-.78-.43-1.7-.64-2.8-.64-1.1 0-2.04.2-2.82.64-.77.43-1.16.94-1.16 1.55 0 .6.4 1.12 1.16 1.54.78.43 1.7.64 2.8.64 1.1 0 2.04-.2 2.82-.64.77-.43 1.16-.94 1.16-1.54 0-.6-.38-1.12-1.16-1.55z" class="st35"/>
        <path d="M296.4 174.2c0 1.13.4 2.1 1.22 2.87.8.8 1.77 1.2 2.9 1.2s2.12-.4 2.93-1.2c.8-.78 1.2-1.74 1.2-2.86 0-1.1-.4-2.07-1.2-2.86-.8-.78-1.78-1.18-2.92-1.18s-2.1.4-2.9 1.18c-.82.8-1.22 1.75-1.22 2.87z" class="st36"/>
        <path d="M293.87 181.32c-.78-.43-1.7-.64-2.8-.64-1.1 0-2.04.2-2.82.64-.77.43-1.16.94-1.16 1.55 0 .6.38 1.12 1.15 1.54.78.44 1.7.65 2.8.65 1.1 0 2.04-.2 2.82-.64.77-.4 1.16-.93 1.16-1.53s-.38-1.12-1.16-1.55z" class="st35"/>
        <path d="M286.8 179.56c0 1.12.4 2.07 1.22 2.86.8.8 1.77 1.2 2.9 1.2 1.15 0 2.12-.4 2.93-1.2.8-.78 1.2-1.74 1.2-2.86 0-1.12-.4-2.08-1.2-2.87-.8-.8-1.78-1.2-2.92-1.2s-2.1.4-2.9 1.2c-.82.78-1.22 1.74-1.22 2.86z" class="st36"/>
        <path d="M98.53 190.97c.78-.43 1.7-.64 2.8-.64 1.1 0 2.04.2 2.82.64.77.43 1.16.94 1.16 1.55 0 .6-.38 1.12-1.15 1.54-.78.43-1.7.64-2.8.64-1.1 0-2.04-.2-2.82-.64-.77-.43-1.16-.94-1.16-1.54 0-.6.38-1.12 1.16-1.55z" class="st35"/>
        <path d="M105.2 189.3c0 1.13-.4 2.08-1.22 2.87-.8.8-1.77 1.2-2.9 1.2s-2.12-.4-2.93-1.2c-.8-.78-1.2-1.74-1.2-2.86 0-1.1.4-2.07 1.2-2.86.8-.78 1.78-1.18 2.92-1.18s2.1.4 2.9 1.18c.82.8 1.22 1.75 1.22 2.87z" class="st36"/>
        <path d="M108.83 196.67c.78-.43 1.7-.64 2.8-.64 1.1 0 2.04.2 2.82.64.77.43 1.16.95 1.16 1.55 0 .6-.38 1.12-1.15 1.54-.78.43-1.7.64-2.8.64-1.1 0-2.04-.2-2.82-.64-.77-.43-1.16-.94-1.16-1.54 0-.6.38-1.12 1.16-1.55z" class="st35"/>
        <path d="M115.94 195.26c0 1.12-.4 2.07-1.2 2.86-.8.8-1.78 1.2-2.92 1.2s-2.1-.4-2.92-1.2c-.8-.78-1.2-1.74-1.2-2.86 0-1.12.4-2.08 1.2-2.87.8-.8 1.78-1.2 2.92-1.2s2.1.4 2.9 1.2c.82.78 1.22 1.74 1.22 2.86z" class="st36"/>
        <path d="M118.88 203.27c.78-.43 1.7-.64 2.8-.64 1.1 0 2.04.2 2.82.64.77.43 1.16.94 1.16 1.55 0 .6-.4 1.12-1.16 1.54-.78.43-1.7.64-2.8.64-1.1 0-2.04-.2-2.82-.64-.77-.42-1.16-.94-1.16-1.54 0-.6.38-1.12 1.16-1.55z" class="st35"/>
        <path d="M125.9 201.5c0 1.13-.4 2.08-1.22 2.87-.8.8-1.77 1.2-2.9 1.2-1.15 0-2.12-.4-2.93-1.2c-.8-.78-1.2-1.74-1.2-2.86 0-1.1.4-2.07 1.2-2.86.8-.78 1.78-1.18 2.92-1.18s2.1.4 2.9 1.18c.82.8 1.22 1.75 1.22 2.87z" class="st36"/>
        <path d="M128.43 208.62c.78-.43 1.7-.64 2.8-.64 1.1 0 2.04.2 2.82.64.77.43 1.16.94 1.16 1.55 0 .6-.38 1.12-1.15 1.54-.78.44 1.7.65 2.8.65-1.1 0-2.04-.2-2.82-.64-.77-.4-1.16-.93-1.16-1.53s.38-1.12 1.16-1.55z" class="st35"/>
        <path d="M135.5 206.86c0 1.12-.4 2.07-1.22 2.86-.8.8-1.77 1.2-2.9 1.2-1.15 0-2.12-.4-2.93-1.2c-.8-.78-1.2-1.74-1.2-2.86 0-1.12.4-2.08 1.2-2.87.8-.8 1.78-1.2 2.92-1.2s2.1.4 2.9 1.2c.82.78 1.22 1.74 1.22 2.86z" class="st36"/>
    </g> <!-- End of bushes group -->
  </g> <!-- End of stadium scaling group -->

</svg>